<?xml version="1.0" encoding="UTF-8"?>
<svg id="Layer_1" xmlns="http://www.w3.org/2000/svg" version="1.1" viewBox="0 0 3413.35 950.34">
  <!-- Generator: Adobe Illustrator 30.5.1, SVG Export Plug-In . SVG Version: 2.1.4 Build 3)  -->
  <defs>
    <style>
      .st0 {
        fill: #333114;
      }

      .st1, .st2, .st3 {
        isolation: isolate;
      }

      .st2 {
        font-size: 88.06px;
        letter-spacing: 1.06em;
      }

      .st2, .st3 {
        font-family: Calibre2-Regular, 'Calibre 2';
      }

      .st3 {
        font-size: 59.29px;
        letter-spacing: .62em;
      }
    </style>
  </defs>
  <g>
    <path class="st0" d="M1344.62,530.2c-53.57,18.09-109.52,4.54-141.3-44.46l-76.84-118.47c-6.16-9.51-15.85-20.21-24.03-26.51-23.87.44-42.6-3.04-65.41-14.05v170.8c.02,21.77,13.81,29.57,34.51,35.4l-111.78.11c15.54-6.52,30.7-11.53,30.7-30.34l-.04-392.14c0-18.84-14.34-24.47-31.34-30.7l158.21-.18c66.25-.07,128.62,36.59,138.04,105.24,8.33,60.66-23.76,117.92-80.99,140.3l-43.53,12.79c24.14,6.58,44.15,21.26,58.63,43.02l65.52,98.48c14.14,21.23,32.94,39.32,57.61,47.34l32.07,3.39-.02-.02ZM1200.37,258.73c11.92-35.13,12.01-71.92-1.48-105.57-14.25-35.51-46.43-61.55-84.85-61.97l-77.15-.82.4,219.34c18.73,15.12,38.32,19.73,60.51,20.37,47.21,1.35,86.91-25.2,102.58-71.35Z"/>
    <path class="st0" d="M1720.02,272.31c-16.85-9.46-77.71-1.86-76.09,35.84,23.21,1.46,40.96,14.14,52.8,33.18,23.89,38.43,22.85,88.44-3.28,125.85-12.92,18.49-34.58,31.16-57.45,28.77-19.26-2.04-36.66-14.43-47.25-30.34-25.69-38.54-24.62-89.32.24-127.4,11.77-18.02,27.82-28.3,49.01-30.52,2.06-16.78,11.95-31.87,27.22-38.59l49.36-21.74c19.99-8.8,36.59-25.25,50.25-43.18,48.92-64.26,91.07-130.48,129.91-204.18,13.48,74.98-17.71,148.99-78.22,193.85l-70.02,42.84,33.14-6.58c28.26-5.61,53.68-15.16,83.14-13.94,35.62,1.49,69.8,11.22,96.86,34.29l-49.12,2.97c-110.58,6.67-121.79-38.5-215.51,9.62l66.03,5.05c40.52,6.67,76.87,30.83,95.24,69.69-50.09-17.73-92.25-40.78-136.2-65.45l-.04-.02ZM1616.84,340.45c-12.97-1-28.22,23.92-22.98,44.02.84,3.19,6.43,8.49,9.58,8.58,17.04.42,26.91-51.55,13.41-52.6Z"/>
    <path class="st0" d="M607,301.02v193.72c0,17.11,12.86,28.81,28.88,28.77l102.36-.31c14.38-.04,30.57-3.1,43.91-6.43,35.93-8.95,56.5-35,71.61-68.53l-13.03,85.29-311.86-.16c17.84-7.6,31.16-13.17,31.16-33.2l-.22-389.79c0-18.86-14.98-23.38-30.76-30.81l295.3-.27,7.23,74.72c-11.99-39.52-39.52-60.47-80.17-63.68l-144.4-.62-.07,199.66,113.57-1.35c19.88-.24,35.4-11.77,42.36-28.99l-.86,75.91c-10.53-22.28-26.77-33.36-49.4-33.47l-105.57-.47h-.02Z"/>
    <path class="st0" d="M3246.65,433.16l19.86,23.72-23.47-25.76c-43.4-47.61-120.04-58.89-178.05-28.84-36.59,18.97-56.79,54.46-69.62,91.61-9.55,27.62-31.36,44.53-59.65,38.99,20.06-5.19,34.6-14.67,42.36-33.54l122.57-298.71,51.82-123.04,142.52,355.85c2.28,5.7,3.06,10.4,2.86,15.83l42.76,51.98c18.66,22.7,43.95,32.14,72.74,29.43-45.61,17.04-119.89,13.54-138.22-28.64l-28.44-68.87-.04-.02ZM3105.35,373.65c45.37-7.18,86.71,2.77,126.32,24.87l-98.23-245.18-103.91,259.59c23.87-20.3,45.7-34.58,75.8-39.28h.02Z"/>
    <path class="st0" d="M366.67,79.53l75.98.49c-17.42,7.58-31.54,13.14-38.61,30.39l-114.13,278.88-57.76,143.54c-5.7,1.53-13.23,1.51-19.02-.51L38.85,112.95c-7.89-19.02-20.46-26-38.85-33.22h116.5c-8.91,4.41-18,6.83-22.72,10.51s-5.63,17.73-2.97,24.14l150.21,362.64,139.59-341.8,8.64-30.37c-.71-15.12-7.31-18.66-22.61-25.31h.02Z"/>
    <path class="st0" d="M2967.11,107.61c1.37-3.99-.82-15.65-4.14-17.71l-16.11-10.04,72.61-.13c-15.54,7.45-29.7,11.06-35.95,26.97l-170.22,433.03-172.86-427.78c-7.58-17.71-18.68-24.27-37.83-32.25l114.66.16-22.52,10.66c-4.94,2.35-5.52,16.78-2.97,23.16l139.42,349.87,114.95-295.3,20.97-60.64h.02Z"/>
    <path class="st0" d="M1622.43,533.19c113.68,13.99,203.91-66.94,211.54-183.74l17.49,11.53c-.53,39.56-11.5,79.22-37.61,110.78-64.81,78.35-187.71,93-279.03,53.59-91.32-39.41-154.47-139.55-141.48-242.13,17.07-134.94,142.39-226.68,275.79-209.08,45.48,6.01,85.4,25.36,120.18,55.57l-18.04,30.41c-15.16-22.92-32.47-42.02-56.81-54.97-91.32-48.54-203.29-13.83-251.63,78.37-45.95,87.64-34.95,195.71,26.71,273.8,33.14,41.98,79.97,69.38,132.92,75.89l-.02-.02Z"/>
    <path class="st0" d="M2200.52,522c54.52-.53,88.99-37.72,110-85.89l-15.25,97.3-290.05-.16c16.62-6.87,32.21-11.26,32.23-30.88l.07-389.08c0-20.15-13.72-27.66-31.96-33.11l109.36-.04c-16.07,6.14-30.25,10.95-30.25,28.24v387.97c-.02,14.45,10.79,26.69,24.69,26.55l91.19-.89-.02-.02Z"/>
    <path class="st0" d="M2515.42,533.01l-108.27.16c17.82-6.92,31.05-13.01,31.05-33.07l.04-386.99c0-20.46-14.05-27.04-32.29-33.2l111.82.04c-18.44,6.58-33.16,12.35-33.16,32.96l-.04,387.28c1.93,19.02,12.23,25.64,30.85,32.83h0Z"/>
  </g>
  <g>
    <path d="M777.36,782.23l-44.33-4.37,161.65-.89c28.68-.16,55.83-7.58,85.22,3.77-24.65,6.16-47.1,2.93-71.08,2.7l-131.46-1.24v.02Z"/>
    <path d="M2634.82,782.34l-130.35,1.57c-20.83.24-41.38,3.19-62.68-3.39,29.28-11.37,56.81-3.88,85.33-3.68l153.14,1.11-45.44,4.39h0Z"/>
    <g class="st1">
      <text class="st2" transform="translate(1028.8369 809.6738)"><tspan x="0" y="0">ZEYTİNYAĞI</tspan></text>
    </g>
  </g>
  <g class="st1">
    <text class="st3" transform="translate(1436.0898 936.4111)"><tspan x="0" y="0">PELİTKÖY</tspan></text>
  </g>
</svg>