<?xml version="1.0" encoding="UTF-8"?>
<svg id="icons_xA0_Image" xmlns="http://www.w3.org/2000/svg" version="1.1" viewBox="0 0 242.84 397.42">
  <!-- Generator: Adobe Illustrator 30.5.1, SVG Export Plug-In . SVG Version: 2.1.4 Build 3)  -->
  <defs>
    <style>
      .st0 {
        fill: #e8cc92;
      }
    </style>
  </defs>
  <path d="M203.01,366.57c-14.84,12.11-31.24,20.57-49.34,26.02-35.15,10.58-72.01,3.24-102.24-16.74-11.25-7.43-19.82-15.71-27.76-26.45C9.69,330.51,1.33,309.3.21,285.55c-1.24-26.26,3.01-50.85,13.32-75,8.06-18.88,17.63-36.29,27.98-54.01l14.43-24.68C80.46,89.89,102.77,45.99,119.9,0l5.97,15.29c8.41,18.92,16.76,37.13,26.52,55.55,12.46,23.51,25.72,45.56,39.59,68.27,12.48,20.44,23.78,40.49,33.78,62.28,13.04,28.41,18.93,58.76,16.58,89.89-1.65,21.9-10.05,41.43-23.7,58.3-4.82,5.96-9.26,11.81-15.62,16.99ZM121.11,384.15c49.39.06,91.59-31.51,104.37-78.88,10.94-40.57-2.27-85.6-22.47-122.06l-17.19-31.02-43.36-75.53c-8.71-15.17-14.9-30.46-21.85-47.26l-11.99,27.19c-9.05,20.51-19.98,39.26-31.27,58.67l-28.7,49.35c-9.77,16.81-18.02,33.55-25.7,51.42-14.24,33.12-15.33,69.51-1.89,102.87,5.86,14.53,14.34,25.96,25.65,36.54,20.18,18.87,45.9,28.67,74.39,28.7Z"/>
  <path class="st0" d="M121.11,384.15c-28.5-.04-54.21-9.83-74.39-28.7-11.31-10.58-19.79-22-25.65-36.54-13.45-33.36-12.36-69.75,1.89-102.87,7.68-17.86,15.93-34.61,25.7-51.42l28.7-49.35c11.29-19.41,22.22-38.16,31.27-58.67l11.99-27.19c6.95,16.8,13.15,32.09,21.85,47.26l43.36,75.53,17.19,31.02c20.2,36.46,33.41,81.49,22.47,122.06-12.77,47.36-54.97,78.94-104.37,78.88ZM25.02,241.95c-.85,3.21-1.27,6.8-.25,10.12,7.42-24.68,16.94-46.79,29.45-68.92,12.7-22.47,25.5-43.76,37.07-66.88,10.55-21.08,20.02-41.65,28.21-63.67,1.52-4.1,2.31-7.98,1.43-12.44-4.33,7.99-6.94,15.4-10.51,23.28l-21.51,47.43c-5.27,11.62-11.18,22.55-17.55,33.53l-17.62,30.33c-12.63,21.74-22.26,42.73-28.71,67.22ZM155.55,122.96c-7.26-14.26-13.37-27.89-19.1-42.31-3.1-7.79-6.08-14.95-9.92-22.31,9.42,33.81,22.37,64.36,43.11,92.3l-14.09-27.68ZM190.67,187.69c-2.58-6.64-5.46-12.45-10.03-17.74.68,7.5,4.87,13.06,10.03,17.74ZM164.18,351.96c33.07-12.12,51.9-50.18,49.22-85.57-1.58-16.48-5.98-32.19-11.89-47.5l-3.01-3.01c-.65-.65-2.92.07-3.91.94,9.29,22.23,13.2,46.53,6.21,70.04-6.2,20.84-18.82,38.92-36.34,51.48-10.97,7.87-25.59,12.08-25.61,16.32-.01,3.19,16.53.53,25.33-2.69ZM95.73,348.84c-4.03-3.72-7.15-5.98-11.14-8.4-23.62-12.89-39.7-34.68-45.65-61.26-1.93-8.64-1.55-17.15-2.75-26.16l-3.02.64c-2.3.49-.63,24.45,3.07,37.22,7.3,25.23,24.61,45.74,48.44,56.33,3.58,1.59,6.29,4.87,11.06,1.64ZM159.59,358.41c-26,5.57-50.11,4.91-73.64-4.2-24.35-10.82-42.73-30.22-51.61-55.54-3.74-10.66-5.53-21.81-6.9-33.06l-1.37-11.25-.75,15.01c-1.23,24.7,7.99,48.35,24.94,66.6,24.39,26.26,54.7,36.68,90.22,30.57,7.11-1.22,14.15-3.26,19.12-8.12Z"/>
  <path d="M164.18,351.96c-8.8,3.22-25.34,5.88-25.33,2.69.02-4.24,14.63-8.46,25.61-16.32,17.52-12.56,30.14-30.64,36.34-51.48,6.99-23.51,3.09-47.8-6.21-70.04.99-.86,3.26-1.59,3.91-.94l3.01,3.01c5.92,15.31,10.32,31.02,11.89,47.5,2.68,35.39-16.15,73.45-49.22,85.57Z"/>
  <path d="M159.59,358.41c-4.97,4.85-12.01,6.89-19.12,8.12-35.52,6.11-65.83-4.31-90.22-30.57-16.95-18.25-26.17-41.9-24.94-66.6l.75-15.01,1.37,11.25c1.37,11.25,3.15,22.4,6.9,33.06,8.89,25.32,27.26,44.72,51.61,55.54,23.53,9.11,47.64,9.78,73.64,4.2Z"/>
  <path d="M25.02,241.95c6.45-24.49,16.08-45.48,28.71-67.22l17.62-30.33c6.38-10.98,12.28-21.91,17.55-33.53l21.51-47.43c3.57-7.88,6.17-15.29,10.51-23.28.88,4.45.09,8.34-1.43,12.44-8.18,22.02-17.65,42.59-28.21,63.67-11.58,23.12-24.38,44.42-37.07,66.88-12.51,22.13-22.02,44.24-29.45,68.92-1.01-3.32-.59-6.91.25-10.12Z"/>
  <path d="M95.73,348.84c-4.77,3.22-7.47-.05-11.06-1.64-23.83-10.59-41.14-31.1-48.44-56.33-3.7-12.77-5.37-36.73-3.07-37.22l3.02-.64c1.19,9.02.81,17.53,2.75,26.16,5.96,26.59,22.03,48.37,45.65,61.26,3.99,2.42,7.11,4.68,11.14,8.4Z"/>
  <path d="M155.55,122.96l14.09,27.68c-20.75-27.94-33.69-58.49-43.11-92.3,3.83,7.36,6.82,14.52,9.92,22.31,5.73,14.43,11.84,28.05,19.1,42.31Z"/>
  <path d="M190.67,187.69c-5.16-4.67-9.35-10.24-10.03-17.74,4.57,5.29,7.44,11.1,10.03,17.74Z"/>
</svg>