<?xml version="1.0" encoding="UTF-8"?>
<svg id="icons_xA0_Image" xmlns="http://www.w3.org/2000/svg" version="1.1" viewBox="0 0 423.67 378.08">
  <!-- Generator: Adobe Illustrator 30.5.1, SVG Export Plug-In . SVG Version: 2.1.4 Build 3)  -->
  <defs>
    <style>
      .st0 {
        fill: #bdb97f;
      }

      .st1 {
        fill: #a89e6d;
      }

      .st2 {
        fill: #dfcb90;
      }

      .st3 {
        fill: #e5ce99;
      }

      .st4 {
        fill: #fff;
      }

      .st5 {
        fill: #d4c295;
      }
    </style>
  </defs>
  <path d="M300.84,291.16c1.78,34.39-11.27,67.58-40.4,83.23-10.93,5.87-22.58,4.63-32.02-2.95-19.14-15.39-25.31-38.8-23.39-63.44-9.85,7.57-21.74,11.9-33.59,10.6-15.09-1.65-26.03-12.49-27.96-27.32-1.76-13.53.29-27.62,6.82-39.82,3.76-7.01,9.02-12.82,13.99-19.36-12.84,4.01-24.49,7.01-37.15,9.4-4.57.86-9.61,2.61-14.17,2.52-3.97-.08-7.69-.77-11.15.9-10.94,5.27-21.24,10.46-31.8,16.3-4.13,2.29-8.42,4.48-13.36,2.95,4.3-16,13.62-29.06,24.72-40.51,8.86-9.14,18.3-15.49,29.35-21.85,24.99-14.38,51.92-23.87,81.08-24.82,16.98-.54,33.18,1.11,48.73,7.23.91.76,2.97,2.36,3.78,1.88l3.44-2.04,17.63-12.8c-4.58-.83-7.5-.64-11.45-.37-12.33.85-23.82-.42-35.16-4.63-14.16-5.26-26.72-11.63-39.63-19.5-7.03-4.29-14.28-10.38-22.3-12.38-13.13-3.28-25.6-5.54-38.36-9.91-18.41-6.31-36-7.1-51.86-18.24-14.59-10.24-29.73-18.21-46.57-24.3-5.62-2.03-10.68-4.23-16-7.08-7.37-3.96-3.4-15.06,1.39-24.17C15.98,30.72,13.98,15.66,22.68,4.87,27.48-1.07,36.61-.83,43.23,1.65c11.13,4.17,21.7,7.57,33.43,9.59,6.56,1.13,13.68,3.16,20.24,3.13,12.78-.05,25.12-2.55,37.95-1.89l37.03,1.92,26.03-.08c6.66-.02,13.52,1.55,20.04,2.44,7.15.97,12.62,3.73,17.49,8.79,10.9,11.31,21.32,22.49,31.17,34.78l15.12,18.87c13.15,16.41,15.91,38.7,17.43,59.95.87.05,2.46-1.24,3.45-2.31l18.22-19.75,13.35-17.63c3.89-5.13,6.56-10.33,12.09-14.63,8.32,2.44,15.63,7.81,11.61,12.1-5.56,5.94-11.06,10.95-15.94,17.21-9.2,11.8-17.81,23.06-27.65,34.45-5,5.79,12.06,14.64,22.69,18.4,20.82,7.36,40.49,15.94,59.24,27.63,10.61,6.62,19.41,14.53,26.05,25.04,2.07,3.27,1.63,6.53-.16,8.9-3.27,4.33-5.84,2.1-9.9,1.28-10.79-2.18-22.04-.85-33.16-2.21-7.09-.87-13.98-3.75-20.86-5.88-3.3-1.02-6.27-3.07-9.45-4.9,12.71,17.26,17.9,37.63,13.31,58.46-4.52,20.48-18.69,35.26-38.23,31.78-9.41-1.68-16.52-7.04-23-15.95ZM219.7,132.73l-28.63-23.81c-7.01-5.83-12.43-13.76-12.56-23.11-.09-7.03,7.32-12.94,14.2-13.05,17.11-.27,40.99,4.82,53.1,15.41,11.45,10.02,21.25,21.23,31.87,31.98l14.34,14.52c-1.11-12.37-2.59-23.28-6.49-34.29-3.57-10.1-10.37-18.72-16.77-27.15-7.03-9.25-13.04-18.67-21.08-26.96l-11.29-11.63c-13.43-13.84-28.3-14-47.57-13.53-20.54.5-40.49-1.01-60.87-2.69-10.09-.03-19.42.5-28.98,2.85-18.51-1.83-35.6-6.47-52.96-12.17l-9.97-3.27c-11.24-3.69-14.62,14.99-17.68,26.85s-7.52,21.14-12.12,32.98l36.5,13.76c19.11,7.2,34,23.96,47.12,28.8,15.6,5.75,31.23,10.72,47.51,14.31l14.13,3.11,6.65,1.43,14.51,8.32c15.02,8.61,29.12,17.84,45.88,22.44,8.55,2.35,17.08,6.77,26.25,6.19l19.47-1.23,6.19,5.06,2.44-2.21c.66-.6-1.45-3.43-2.37-3.66l-14.88-3.7c-8.14-3.18-14.86-8.13-21.41-13.54l-14.54-11.98ZM278.87,158.49l9.39-8.63-16.89-12.23c-4.87-3.53-9.93-7.98-9.97-14.5,6.65,3.82,11.58,8.92,17.84,11.44l7.18,2.9-15.29-14.63c-6.38-6.1-11.43-13.09-18.26-18.74l-18.11-15c-12.61-7.02-26.29-10.1-41.05-9.49-1.46.9-3.63,2.99-4.36,4.39-2.32,4.45,13.89,17.68,22.01,23.71,3.61,2.68,6.54,6.74,9.51,10.14l5.29-.98c-2.59-2.72-5.4-6.78-8.18-8.74-6.16-4.35-12.29-7.37-16.91-13.28l-6.12-7.85c5.77.61,8.13,3.58,11.8,6.26,5.28,3.87,11.37,7.18,15.94,11.91,3.84,3.98,6.98,8.33,10.4,12.72,13.88,17.8,25.6,28.75,45.78,40.61ZM225.21,224.41l23.44-26.56c12.74-14.44,30.31-22.91,45.72-38.28l22.53-22.48c5.28-5.27,9.64-10.89,14.14-16.85l15.11-20c1.14-1.5,4.8-3.45,5.31-5.4.6-2.31-3.43-5.54-4.89-4.42l-11.28,15.04c-10.67,14.23-21.33,27.46-33.94,40.01-5.72,5.7-10.71,12.01-16.94,17.09-19.86,16.19-39.6,32.07-61.98,43.94l-21.84,11.59c6.36,3.4,15.47-1.33,24.62,6.31ZM311.89,162c-2.11-1.2-4.9-4.32-7.15-5.97,2.78,6.19,8.39,9.8,15.41,10.68l-8.26-4.71ZM323.66,198.03c-5.67-7.11-12.06-13.74-14.54-22.04l-5.18-17.32c-4.91,2.8-10.72,7.17-11.43,12.51-1.29,9.76,1.48,19.28,4.84,28.06,2.87-.68,6.49-2.25,8.45-2.14l17.85.93ZM333.78,196.01c-1.05-.31-4.02-.67-4.41-1.8l-1.51-4.42c-.5-1.45-3.19-3.54-6.12-4.05l8.05,11.43c6.84,9.72,17.82,14.64,29.24,17.94,8.22,2.37,16.28,5.81,24.86,6.86,7.31.9,14.54.39,21.98.65-6.52-4.67-12.67-11.02-20.56-13.9-11.15-4.06-21.44-8.21-31.39-14.78-6.69-4.42-13.77-7.44-20.84-11.17l-13.51-7.13c.92-2.61-3.18-4.68-6.41-5.41,1.51,5.65,4.59,10.9,9.65,15.5.53-1.2.43-2.79.95-2.62l2.46.81c1.88.62,3.74,1.97,5.5,3.29l16.56,12.45c7.15,5.38,16.31,7.01,24.34,10.86,4.12,1.98,8.06,3.23,12.34,3.64l9.56,6.69c-4.17-.36-6.13-1.51-8.41-4.29l-6.81-2.23.36,3.02c-5.79-.28-10.64-3.25-14.73-7.47l-22.51-10.88-.26,2.04c.02-.19-5.32-.71-8.37-5.02ZM417.45,223.84c-5.73-15.12-30.7-30.73-44.87-36.41l-26.46-10.61-16.05-7.49,1.31,2.56c.14.27-.05.4-.32.51l-2.68,1.06,12.53,8.53c8.27,5.64,16.51,10.31,25.43,14.7l19.42,9.56c7.12,3.5,14.82,6.15,21.33,10.56l10.38,7.03ZM291.83,203.42c-3.34-9.82-4.91-19.55-5.47-30.24-5.02,7.62-6.73,15.11-9.42,22.91-6.03,15.04-9.9,30.71-11.34,46.87l11.89,6.94c-4.54-18.55,2.35-32.11,14.34-46.47ZM235.03,237.71c2.37,4.56,3.03,9.32,3.46,14.47l8.64-6.16c2.53-1.8,8.25-2.15,11.79-2.84,2.45-11.35,3.37-22.79,7.48-33.5l10.69-27.9-10.5,8.03c-5.85,4.47-10.87,9.64-15.74,15.29l-20.45,23.71,4.62,8.91ZM194.51,191.62c13.41-2.24,25.76-3.22,38.25,1.3l2.5-.64c.47-.12.63-2.31.17-2.41l-12.93-2.65-9.53-1.7,3.33-1.29c-28.23-4.78-60.96.74-87,14.27-6.51,3.38-12.05,7.86-18.34,11.57-11.83,6.99-23.09,14.57-31.9,24.94.79,1.15,1.44,1.84,1.21,2.45l-1.27,3.42,10.35-7.31c10.13-7.15,21.93-10.58,33.04-16.05,16.01-7.88,31.79-13.91,48.91-19l23.2-6.9ZM117.28,229.86c18.12-7.91,35.99-13.61,54.83-18.47,5.58-1.44,12.23-2.48,16.89-5.09,3.05-1.71,4.96-2.78,8.08-4.03l14.85-5.95c-4.28-.4-8.53.25-13.22,1.37-19.52,4.66-38.73,8.56-57.72,15.52s-37.68,16.67-55.29,27.72c-4.63,2.9-8.09,7.1-12.2,10.14l12.05-5.29c7.44-3.27,14.73-6.4,21.89-10.18,3.05-1.61,6.19-4.14,9.84-5.73ZM113.45,234.53l-.5,2.96,22.82-5.41,33.33-7.32c8.26-1.81,17.1-5.32,24.83-9.55l34.53-18.87c-7.01.66-12.45,2.9-18.61,4.94-5.15,2.84-10.36,5.04-15.97,6.78-.97,2.69-4.21,4.42-7.38,3.3-10.09,2.07-20.15,3.94-29.93,7.41-7.66,2.72-14.82,5.22-22.61,7.32-8.31,2.24-20.38,7.6-20.52,8.44ZM298.81,251.63l3.75,9.64,8.62,17.39c4.02,8.11,11.62,11.93,19.85,14.03-4.02,1.09-8.01.46-12.52-.16l-.07,4.33c3.01,2.27,8.57,2.75,13.06.8,6.84-2.97,14.37-5.44,18.44-12.68,11.35-20.18,3.65-62.35-18.54-74.42-9.95-6.3-21.31-8.73-32.54-5.72-12.02,9.26-16.79,23.73-14.67,38.56.62,5.33,1.95,10.34,3.99,14.76l.21-6.2c.03-.81,3.34-1.39,3.27-2.18l-.33-3.6c-2.02-10.23-2.68-22.6,4.57-31.03,2.16-2.51,4.81-3.99,6.11-7.49l7.88,1.34,8.04,2.65-8.55,1.61c-2.12.4-5.86.06-8.62-.27-8.12,7.48-9.1,18.58-5.56,28.48l3.63,10.14ZM171.1,300.48l14.87-1.42c8.88-.85,16.52-7.16,21.24-14.68,6.36-10.14,12.57-19.4,20.63-28.31,2.52-2.79,4.34-7.19.99-10.07-1.09-1.38-1.45-3.67,1.13-1,.13-6.71-3.46-11.43-7.85-16.27-7.25-1.65-14.8-4.08-22.1-2.67l-10.17,1.98,7.57-3.17c-28.32,2.52-45.62,28.22-47.78,55.1-.6,7.44,1.74,14.46,5.58,19.84l3.81-1.44-4.07-12.57c-.99-3.07-.83-6.1.47-8.95l.96,10.84c5.27,1.19,8.44,6.16,8.91,10.72-1.89.36-5.57,4.65-3.95,5.77l6.45,4.47,3.31-8.17ZM250.39,368.45l-.08-2.04c-.01-.27.79-.5.95-.28l1.38,1.9c19.53-7.47,35.1-33.69,38.46-54.81,3.8-23.92-5.93-60.24-30.36-64.86-5.07-.09-10.42,3.52-15.05,5.55-10.34,4.53-17.49,13.43-22.82,23.09-6.95,12.61-9.94,25.68-9.65,40.12.23,11.41,2.08,23.11,9.52,32.24,1.69,2.08,2.5,3.57,3.9,6.24,3.79,7.2,16.32,15.63,23.74,12.85ZM199.48,303.58l5.32-2.71,5.25-15.84c-3.62,5.17-5.98,9.71-11.9,12.41l1.33,6.14Z"/>
  <path class="st3" d="M219.7,132.73l14.54,11.98c6.55,5.4,13.27,10.36,21.41,13.54l14.88,3.7c.92.23,3.03,3.06,2.37,3.66l-2.44,2.21-6.19-5.06-19.47,1.23c-9.17.58-17.7-3.84-26.25-6.19-16.75-4.6-30.85-13.82-45.88-22.44l-14.51-8.32-6.65-1.43-14.13-3.11c-16.28-3.59-31.91-8.56-47.51-14.31-13.12-4.84-28.01-21.6-47.12-28.8l-36.5-13.76c4.6-11.84,9.19-21.66,12.12-32.98S24.81,2.12,36.04,5.81l9.97,3.27c17.36,5.7,34.45,10.34,52.96,12.17,9.57-2.34,18.9-2.87,28.98-2.85,20.39,1.68,40.34,3.19,60.87,2.69,19.27-.47,34.13-.31,47.57,13.53l11.29,11.63c8.05,8.29,14.06,17.71,21.08,26.96,6.4,8.43,13.2,17.05,16.77,27.15,3.89,11.02,5.38,21.92,6.49,34.29l-14.34-14.52c-10.62-10.75-20.42-21.96-31.87-31.98-12.1-10.59-35.99-15.68-53.1-15.41-6.88.11-14.3,6.02-14.2,13.05.12,9.35,5.54,17.28,12.56,23.11l28.63,23.81ZM55.88,23.93l-11.8-3.98c5.03,4.45,10.54,8.7,17.71,9.65-1.09-2.3-3.87-4.98-5.9-5.67ZM224.24,49.34c1.65-.34,2.78-3.29,2.11-4.11-.54-.67-2.05-2.46-2.77-2.91l-10.9-6.88c-3.4-2.15-7.88-3.64-12.46-5.44,1.96,2.54,5.76,7.32,8.69,8.24,4.48.25,6.64,1.06,9.56,4.43l5.78,6.68ZM119.4,107.62l-15.62-7.39c-10.87-5.14-20.83-10.75-31.24-16.85-15.8-9.67-31.75-17.76-48.69-25.25-.4-.32-1.85-2.23-1.36-2.63l2.07-1.71,5.38-4.46c-5.37-3.89-11.64,2.92-14.64,10.03,6.74,4.35,13.37,7.76,20.62,10.66,9.98,3.99,18.65,8.44,27.73,14.3,14.55,9.4,29.36,18.42,46.32,22.08,2.82.61,6.01-1.25,8.8,2.43,1.71.32,2.6-.16.63-1.21ZM241.89,69.69c.71,2.54,3.27,6.23,4.84,8.71.11-12.05-5.71-21.64-12.64-31.24-2.54,2.54-2.42,4.96-1.23,7.41.93,1.92,2.93,3.36,5.99,4.14l3.05,10.99ZM75.89,76.82c-6.17-4.12-11.85-7.28-17.28-11.48-7.81-6.04-16.08-10.4-25.61-13.62l-2.19,3.95c3.37.47,6.45.9,9.08,2.29l20.34,10.79c5.31,2.81,9.48,7.3,15.66,8.07ZM239.08,70.41c1.68-3.23.01-7.39-3.22-7.23-1.3.07-2.49,4.05-1.44,4.8.9.64,3.29,1.86,4.66,2.43ZM121.96,106.27c-1.6-1.76-3.33-2.73-5.34-3.97-9.41-5.83-17.44-13.02-27.92-17.29l16,11.21c5.59,3.92,10.66,7.52,17.26,10.05ZM140.41,114.98l-2.23-4.26c-1.99-3.79-8.36-6.43-12.08-1.24l14.31,5.49ZM155.6,120.87l1.06-4.38c.25-1.05-1.74-2.5-2.86-3.21-3.58-2.29-7.96-1.63-9.23,2.54l11.03,5.05ZM194.99,139.27c10.16,4.81,19.72,10.09,28.4,15.94.56.38,2.16.78,2.11.27l-.19-1.91c-8.93-5.09-17.33-9.88-26.54-14.46-7.62-3.25-15.47-6.89-21.94-11.96l-13.07-10.26-2.14,4.41c-.34.69-3.01.89-3.64,1.01,7.9,2.5,13.68,8.97,15.52,7.92l1.3-.75,1.99,2.96c.38.56,2.77-.46,3.42-.15l14.77,6.99ZM236.75,157.68l9.23,1.46-12.14-7.48,3.07,4.95c-3.25-.83-5.43-1.71-8.23-3.18.32,4.94,5.26,3.8,8.07,4.25Z"/>
  <path class="st2" d="M250.39,368.45c-7.42,2.78-19.95-5.65-23.74-12.85-1.41-2.68-2.21-4.17-3.9-6.24-7.43-9.13-9.28-20.83-9.52-32.24-.29-14.44,2.7-27.51,9.65-40.12,5.32-9.66,12.48-18.55,22.82-23.09,4.63-2.03,9.97-5.64,15.05-5.55,24.43,4.63,34.17,40.94,30.36,64.86-3.36,21.12-18.93,47.33-38.46,54.81l-1.38-1.9c-.16-.22-.97.01-.95.28l.08,2.04ZM266.35,257.24c-1.74-2.87-4.71-5.23-7.33-7.05-1.74,3.48-2.85,6.76-3.32,10.8,1.95.95,5.22,1.47,7.24,1.29,1.58-.14,3.97-3.48,3.41-5.04ZM285.59,307c-2.93,14.3-11.59,34.65-22.39,44.54-4.06,3.71-8.85,10.05-15.29,9.39-5.82-.6-11.82-6.02-15.18-10.63-16.73-22.93-12.1-55.27,2.37-78.91,2.51-4.1,6.61-6.95,10-11.05-6.35,2.6-10.52,8.72-14.28,14.67-4.35,6.87-6.81,14.02-9.47,21.61-2.42,6.91-2.79,14.02-3.09,21.41-.61,15.48,4.83,28.2,15.79,39.05,4.14,4.1,10.33,9.26,16.36,5.66,5.5-3.29,12.6-5.58,16.9-10.19,6.65-7.13,9.69-16.58,13.5-25.36,2.85-6.56,5.71-13.01,4.78-20.18Z"/>
  <path class="st2" d="M298.81,251.63l-3.63-10.14c-3.54-9.9-2.56-21,5.56-28.48,2.76.33,6.5.67,8.62.27l8.55-1.61-8.04-2.65-7.88-1.34c-1.31,3.5-3.95,4.98-6.11,7.49-7.25,8.43-6.58,20.8-4.57,31.03l.33,3.6c.07.79-3.24,1.38-3.27,2.18l-.21,6.2c-2.04-4.42-3.37-9.43-3.99-14.76-2.12-14.83,2.65-29.31,14.67-38.56,11.24-3.01,22.6-.58,32.54,5.72,22.19,12.07,29.9,54.24,18.54,74.42-4.07,7.24-11.6,9.7-18.44,12.68-4.48,1.95-10.05,1.47-13.06-.8l.07-4.33c4.51.61,8.5,1.25,12.52.16-8.23-2.1-15.83-5.92-19.85-14.03l-8.62-17.39-3.75-9.64ZM348.19,270.2c.39-3.3.75-5.85.01-9.35l-2.51,16.19c-4.68,3.11-8.26,8.07-9.8,14.58,11.63-4.97,11.03-10.85,12.3-21.41Z"/>
  <path class="st2" d="M171.1,300.48l-3.31,8.17-6.45-4.47c-1.62-1.12,2.06-5.41,3.95-5.77-.48-4.55-3.65-9.52-8.91-10.72l-.96-10.84c-1.3,2.85-1.47,5.88-.47,8.95l4.07,12.57-3.81,1.44c-3.84-5.38-6.18-12.4-5.58-19.84,2.17-26.88,19.46-52.58,47.78-55.1l-7.57,3.17,10.17-1.98c7.3-1.42,14.85,1.01,22.1,2.67,4.4,4.84,7.98,9.57,7.85,16.27-2.58-2.66-2.23-.38-1.13,1,3.35,2.88,1.53,7.28-.99,10.07-8.06,8.91-14.27,18.18-20.63,28.31-4.72,7.52-12.36,13.83-21.24,14.68l-14.87,1.42ZM217.06,240.89l7.29.88c.1-6.4-5.22-11.54-10.84-11.22-.74.04-3.2.86-3.09,1.52l.53,3.13c.47,2.77,3.07,5.33,6.11,5.69ZM165.81,251.95c7.06-7.71,13.19-14.15,20.65-20.64-2.54.75-5.68,2.37-7.76,4.5-5.01,5.14-10.24,9.73-12.9,16.14Z"/>
  <path class="st1" d="M194.51,191.62l-23.2,6.9c-17.13,5.1-32.91,11.12-48.91,19-11.11,5.47-22.91,8.9-33.04,16.05l-10.35,7.31,1.27-3.42c.22-.6-.42-1.29-1.21-2.45,8.81-10.36,20.07-17.94,31.9-24.94,6.28-3.72,11.83-8.19,18.34-11.57,26.04-13.53,58.77-19.04,87-14.27l-3.33,1.29,9.53,1.7,12.93,2.65c.47.1.3,2.29-.17,2.41l-2.5.64c-12.49-4.52-24.83-3.54-38.25-1.3Z"/>
  <path class="st4" d="M235.03,237.71l-4.62-8.91,20.45-23.71c4.87-5.64,9.89-10.82,15.74-15.29l10.5-8.03-10.69,27.9c-4.1,10.7-5.03,22.15-7.48,33.5-3.54.69-9.26,1.04-11.79,2.84l-8.64,6.16c-.43-5.15-1.09-9.9-3.46-14.47Z"/>
  <path class="st5" d="M225.21,224.41c-9.16-7.65-18.26-2.91-24.62-6.31l21.84-11.59c22.38-11.88,42.12-27.76,61.98-43.94,6.23-5.08,11.22-11.39,16.94-17.09,12.61-12.56,23.27-25.79,33.94-40.01l11.28-15.04c1.46-1.13,5.49,2.11,4.89,4.42-.51,1.96-4.17,3.9-5.31,5.4l-15.11,20c-4.5,5.95-8.86,11.58-14.14,16.85l-22.53,22.48c-15.41,15.38-32.98,23.84-45.72,38.28l-23.44,26.56Z"/>
  <path class="st0" d="M333.78,196.01c3.06,4.31,8.4,4.83,8.37,5.02l.26-2.04,22.51,10.88c4.09,4.22,8.94,7.19,14.73,7.47l-.36-3.02,6.81,2.23c2.28,2.78,4.23,3.93,8.41,4.29l-9.56-6.69c-4.28-.4-8.22-1.66-12.34-3.64-8.02-3.84-17.19-5.48-24.34-10.86l-16.56-12.45c-1.76-1.32-3.62-2.67-5.5-3.29l-2.46-.81c-.52-.17-.42,1.42-.95,2.62-5.06-4.6-8.13-9.85-9.65-15.5,3.23.73,7.33,2.81,6.41,5.41l13.51,7.13c7.07,3.73,14.16,6.75,20.84,11.17,9.95,6.57,20.24,10.72,31.39,14.78,7.9,2.88,14.04,9.23,20.56,13.9-7.44-.26-14.67.25-21.98-.65-8.58-1.05-16.64-4.49-24.86-6.86-11.42-3.3-22.4-8.22-29.24-17.94l-8.05-11.43c2.93.51,5.62,2.6,6.12,4.05l1.51,4.42c.38,1.12,3.36,1.49,4.41,1.8Z"/>
  <path class="st1" d="M117.28,229.86c-3.65,1.59-6.79,4.12-9.84,5.73-7.16,3.77-14.45,6.91-21.89,10.18l-12.05,5.29c4.11-3.04,7.57-7.24,12.2-10.14,17.61-11.05,35.68-20.53,55.29-27.72s38.2-10.86,57.72-15.52c4.69-1.12,8.94-1.77,13.22-1.37l-14.85,5.95c-3.12,1.25-5.03,2.32-8.08,4.03-4.66,2.61-11.31,3.65-16.89,5.09-18.83,4.86-36.71,10.56-54.83,18.47Z"/>
  <path class="st0" d="M417.45,223.84l-10.38-7.03c-6.51-4.41-14.21-7.06-21.33-10.56l-19.42-9.56c-8.92-4.39-17.15-9.06-25.43-14.7l-12.53-8.53,2.68-1.06c.26-.1.46-.24.32-.51l-1.31-2.56,16.05,7.49,26.46,10.61c14.17,5.69,39.14,21.29,44.87,36.41Z"/>
  <path class="st4" d="M291.83,203.42c-11.99,14.36-18.87,27.93-14.34,46.47l-11.89-6.94c1.44-16.15,5.3-31.83,11.34-46.87,2.69-7.8,4.4-15.28,9.42-22.91.57,10.69,2.13,20.43,5.47,30.24Z"/>
  <path class="st1" d="M113.45,234.53c.14-.83,12.21-6.19,20.52-8.44,7.79-2.1,14.95-4.61,22.61-7.32,9.78-3.47,19.84-5.34,29.93-7.41,3.17,1.12,6.4-.62,7.38-3.3,5.6-1.73,10.82-3.94,15.97-6.78,6.16-2.04,11.6-4.28,18.61-4.94l-34.53,18.87c-7.74,4.23-16.58,7.73-24.83,9.55l-33.33,7.32-22.82,5.41.5-2.96Z"/>
  <path class="st4" d="M323.66,198.03l-17.85-.93c-1.95-.1-5.58,1.46-8.45,2.14-3.36-8.78-6.13-18.31-4.84-28.06.7-5.34,6.51-9.71,11.43-12.51l5.18,17.32c2.48,8.3,8.86,14.93,14.54,22.04Z"/>
  <path class="st4" d="M199.48,303.58l-1.33-6.14c5.92-2.7,8.28-7.24,11.9-12.41l-5.25,15.84-5.32,2.71Z"/>
  <path class="st4" d="M311.89,162l8.26,4.71c-7.02-.88-12.64-4.49-15.41-10.68,2.25,1.65,5.05,4.77,7.15,5.97Z"/>
  <path d="M119.4,107.62c1.97,1.05,1.08,1.52-.63,1.21-2.79-3.68-5.98-1.82-8.8-2.43-16.97-3.66-31.77-12.69-46.32-22.08-9.08-5.86-17.75-10.31-27.73-14.3-7.25-2.9-13.88-6.31-20.62-10.66,3-7.11,9.27-13.92,14.64-10.03l-5.38,4.46-2.07,1.71c-.49.4.96,2.32,1.36,2.63,16.94,7.49,32.89,15.58,48.69,25.25,10.41,6.1,20.38,11.7,31.24,16.85l15.62,7.39Z"/>
  <path d="M194.99,139.27l-14.77-6.99c-.65-.31-3.04.72-3.42.15l-1.99-2.96-1.3.75c-1.84,1.05-7.62-5.42-15.52-7.92.63-.12,3.3-.32,3.64-1.01l2.14-4.41,13.07,10.26c6.46,5.08,14.31,8.72,21.94,11.96,9.2,4.58,17.61,9.37,26.54,14.46l.19,1.91c.05.5-1.55.1-2.11-.27-8.68-5.85-18.24-11.13-28.4-15.94Z"/>
  <path d="M75.89,76.82c-6.18-.78-10.35-5.26-15.66-8.07l-20.34-10.79c-2.64-1.4-5.72-1.82-9.08-2.29l2.19-3.95c9.53,3.22,17.79,7.59,25.61,13.62,5.43,4.19,11.12,7.36,17.28,11.48Z"/>
  <path d="M241.89,69.69l-3.05-10.99c-3.06-.78-5.06-2.23-5.99-4.14-1.19-2.45-1.31-4.86,1.23-7.41,6.93,9.6,12.76,19.19,12.64,31.24-1.57-2.48-4.13-6.16-4.84-8.71Z"/>
  <path d="M224.24,49.34l-5.78-6.68c-2.91-3.37-5.07-4.18-9.56-4.43-2.93-.91-6.73-5.69-8.69-8.24,4.58,1.79,9.05,3.29,12.46,5.44l10.9,6.88c.72.46,2.23,2.25,2.77,2.91.67.83-.45,3.78-2.11,4.11Z"/>
  <path d="M155.6,120.87l-11.03-5.05c1.27-4.17,5.65-4.83,9.23-2.54,1.12.71,3.11,2.16,2.86,3.21l-1.06,4.38Z"/>
  <path d="M121.96,106.27c-6.6-2.53-11.67-6.13-17.26-10.05l-16-11.21c10.48,4.27,18.51,11.46,27.92,17.29,2.01,1.25,3.74,2.22,5.34,3.97Z"/>
  <path d="M140.41,114.98l-14.31-5.49c3.72-5.2,10.09-2.56,12.08,1.24l2.23,4.26Z"/>
  <path d="M55.88,23.93c2.04.69,4.81,3.37,5.9,5.67-7.17-.95-12.68-5.2-17.71-9.65l11.8,3.98Z"/>
  <path d="M236.75,157.68c-2.81-.45-7.75.69-8.07-4.25,2.8,1.47,4.98,2.35,8.23,3.18l-3.07-4.95,12.14,7.48-9.23-1.46Z"/>
  <path d="M239.08,70.41c-1.37-.56-3.76-1.78-4.66-2.43-1.05-.75.14-4.73,1.44-4.8,3.23-.17,4.9,4,3.22,7.23Z"/>
  <path d="M285.59,307c.93,7.18-1.93,13.62-4.78,20.18-3.81,8.78-6.85,18.23-13.5,25.36-4.31,4.61-11.4,6.91-16.9,10.19-6.03,3.6-12.22-1.56-16.36-5.66-10.96-10.85-16.4-23.57-15.79-39.05.29-7.39.66-14.49,3.09-21.41,2.66-7.59,5.12-14.74,9.47-21.61,3.76-5.94,7.93-12.07,14.28-14.67-3.4,4.1-7.49,6.95-10,11.05-14.47,23.64-19.11,55.98-2.37,78.91,3.36,4.61,9.36,10.03,15.18,10.63,6.44.66,11.23-5.68,15.29-9.39,10.8-9.89,19.46-30.24,22.39-44.54Z"/>
  <path d="M266.35,257.24c.56,1.57-1.83,4.9-3.41,5.04-2.03.18-5.3-.34-7.24-1.29.47-4.04,1.58-7.32,3.32-10.8,2.62,1.82,5.59,4.18,7.33,7.05Z"/>
  <path d="M348.19,270.2c-1.26,10.56-.67,16.44-12.3,21.41,1.55-6.5,5.12-11.46,9.8-14.58l2.51-16.19c.74,3.5.38,6.05-.01,9.35Z"/>
  <path d="M217.06,240.89c-3.04-.37-5.64-2.93-6.11-5.69l-.53-3.13c-.11-.66,2.36-1.48,3.09-1.52,5.62-.31,10.93,4.83,10.84,11.22l-7.29-.88Z"/>
  <path d="M165.81,251.95c2.65-6.41,7.88-11,12.9-16.14,2.08-2.14,5.21-3.76,7.76-4.5-7.46,6.49-13.59,12.94-20.65,20.64Z"/>
  <path d="M260.6,137.17l.89,2.11c.19.46-2.02.29-2.48-.13l-14.06-12.92c-5.33-4.9-9.57-9.92-11.47-16.58-1.77-6.19-5.45-9.51-10.78-12.57l-20.13-11.55c8.73.93,16.39,4.43,24.3,8.63,8.32,4.42,15.07,15.73,18.32,25.88.94,2.93,4.22,6.88,6.49,8.96l8.92,8.17Z"/>
</svg>