<?xml version="1.0" encoding="UTF-8"?>
<svg id="icons_xA0_Image" xmlns="http://www.w3.org/2000/svg" version="1.1" viewBox="0 0 434.04 389.03">
  <!-- Generator: Adobe Illustrator 30.5.1, SVG Export Plug-In . SVG Version: 2.1.4 Build 3)  -->
  <defs>
    <style>
      .st0 {
        fill: #c1bca8;
      }

      .st1 {
        fill: #a7a195;
      }

      .st2 {
        fill: #cac7b8;
      }

      .st3 {
        fill: #595449;
      }

      .st4 {
        fill: #b5ac91;
      }

      .st5 {
        fill: #cdc5b7;
      }

      .st6 {
        fill: #e9e5d3;
      }

      .st7 {
        fill: #d3cec5;
      }

      .st8 {
        fill: #cfc7b8;
      }
    </style>
  </defs>
  <path d="M105.42,373.57c-29.9-6.19-67.65-21.13-88.76-43.12-5.33-5.56-10.68-11.98-12.32-19.6l-1.73-19.66c-.38-4.26-1.53-7.81-1.64-12.22-.61-25.13-1.45-49.64-.64-74.6.32-9.86,4.46-18.1,11.28-24.78s14.98-12.63,24.16-16.84c29.36-13.43,59.57-21.9,91.83-26l-.73-15.9-40.71-7.82-46.27-8.76c-4.17-.79-9.26-1.19-12.8-3.41-5.73-3.6-6.55-12.03-3.87-18,2.25-5.02,9.15-10.01,15.84-8.72l65.96,12.7,27.23,5.43c8.69-29.97,20.82-55.13,45.52-74.51,9.86-7.73,21.45-11.24,33.38-14.66C222.07-.02,232.03-.51,243.34.42l37.81,3.11c10.4.85,20.81,1.67,30.34,6.11,31.3,14.58,48.11,61.84,48.32,95.33l.25,38.76,9.86,2.46c18.98,6.96,35.75,17.72,50,31.79,9.28,9.16,12.94,20.33,13.51,33.11,1.12,24.92.64,49-1.13,73.89l-2.06,29.04c-.62,8.71-3.94,15.18-10.43,21.02-15.52,13.98-33.49,25.14-53.37,32.39-14.77,5.39-28.79,10.65-44.26,13.8-26.78,5.45-53.66,8.6-81.09,7.62l-55.1-1.95c-13.56-.48-26.8-2.17-39.88-4.88l-40.68-8.42v-.03ZM175.62,187.97l-5.75-36.84c-1.55-9.97-3.25-18.95-1.93-29.16.69-5.35-.69-11.92.87-17.06,2.97-9.84,5.3-18.78,7.69-28.66,1.55-6.41,5.34-12.42,8.57-18.16,2.22-3.95,3.24-9.06,8.57-10.13-8.26,11.42-13.17,23.06-16.55,36.22-2.25,8.75-6.12,13.37-7.56,28.68-.38,4.03-1.9,8.76,3.61,10.58-5.54,1.43-4.2,12.81-1.86,21.45,5.45,20.14,7.76,41.81,15.35,58.47,4.74,10.4,10.14,19.98,17.71,29.01l-16.44-35.04c-3-6.38-4.97-13.13-5.32-20.28l-.93-18.82c.42-15.73,1.88-31.65,1.33-48.15-.15-4.51.12-8.65,1.81-13.15l.44,41.18c.4,38.07,6.17,65.4,30.82,93.84-17.81-31.35-27.43-64.49-24.5-99.03.51,16.9,3.23,31.97,7.43,48,5.09,19.44,14.62,37.22,31.27,48.88,8.43,5.9,16.44,12.56,27.49,14.12-9.82-4.04-18.7-10.01-26.45-18.15-4.25-.89-7.51-3.73-9.36-7.21l6.73,4.31c-10.86-11.84-18.27-24.33-22.55-39.83-2.07-7.5-4.69-15.07-5.95-22.9-5.02-31.19.75-62.14,13.03-90.95,3.31-7.77,8.05-14.5,12.15-21.82,10.72-19.13,25.54-27.41,44.26-37.35-4.21.13-9.25.68-12.36,2.24l-20.74,10.37c-7.35,3.67-13.7,8.42-21.6,11.41l15.31-11.82c7.44-5.74,15.67-9.54,24.2-12.99-6.54-1.66-12.04,1.82-16.45,5.39l-4.55-.52c-10.23,5.03-15.85,13.02-25.15,20.83,8.58-13.18,16.18-24.27,32.01-27.34C224.75,0,204.65,30.95,203.69,30.11l-1.68-1.47c-.26-.23,1-1.17,1.27-1.36,4.7-8.22,10.73-14,18.09-20.12-5.36.31-9.4,2.88-12.8,6.47l-7.3,7.72c-1.99,2.11-4.01,3.29-7.45,2.29l16.12-13.56c-33.7,4.15-51.72,30.29-64.68,61.22-3.05,7.27-5.63,13.79-7.06,21.71l10.66,3.47c8.25,2.68,5.47,20.44,1.01,31.53-.67,1.66-2.68,2.44-5.36,2.7l1.29-4.23-10.43-.83c-.27,20.97,1.22,40.52,10.26,58.85,1.3,2.64,3.06,5.01,3.86,7.98,4.3,8.81,10.18,16.11,16.58,23.68l2.56-.79c1.72-.53-9.06-10.46-12.72-19.73-4-10.13-6.62-19.9-9.36-29.91l-1.35,3.54c-.86-3.04-1.6-6.58-1.7-10.18l-.55-19.47,2.71,5.47,1.99-7.16.9,15.2c.47,8.01.16,19.63,4.84,26.63l-.81-21.86c-.26-7.07.13-16.18,2-22.11l.97,21.38c1.13,24.78,4.66,41.44,21.72,61.23l-10.37-23.46c.23-1.94-.4-2.54-2.18-.12.47-10.62-3.32-20.13-3.71-32.68l-.65-21.23,7.86,36.66,3.52,12.45c3.92,13.89,9.74,26.85,20.53,37.18l-8.53-16.89-4.38-9.59c-1.77-3.88-2.99-7.94-3.73-12.68v-.07ZM261.25,238.22c9.68,4.31,19.22,4.98,28.89,1.83,22.68-7.4,40.24-24.28,49.71-46.25,6.64-15.4,10.3-31.03,13.46-47.56,2.87-14.98,2.97-29.76,1.87-45.26-1.7-24.19-9.61-47.13-22.84-67.08-11.54-17.39-30.52-25.87-51.1-22.77-21.65,9.45-39.15,18.87-52.09,39.12-6.77,10.59-12.18,21.17-15.64,33.39-2.23,7.87-4.51,15.59-6.24,23.64-4.78,22.18-2.74,44.1,2.23,66.03,6.49,28.69,24.42,52.73,51.75,64.91ZM81.07,102.74c-2.51-4.28-3.69-5.58-3.56-8.42,23.5,6.19,45.25,10.38,69.03,14.52.86-1.44.5-5.63-1.05-7.32-25.59-7.34-51.05-10.96-77.16-15.76l-12.02-2.21c-6.44-1.18-12.77-3.45-19.18-3.96-5.07-.4-8.7,3.81-8.93,7.86s2.87,8.79,7.86,8c9.14-1.45,15.43,4.32,25.68,6.14-.26-4.59-.12-7.55.92-10.78l7.56-3.08,1.74,4.89c.39,1.09,3.61,1.44,4.23,1.61-2.59,1.19-4.26,2.03-6.4,3.87,4.34,2.58,7.7,3.79,11.28,4.62v.02ZM131,112.03c-3.69-1.15-8.52-2.95-12.29-3.66l-19.92-3.73c-5.13-.96-9.83-1.58-14.35-3.3l-1.48,4.53,22.27,4.97,30.04,6.95-4.27-5.75h0ZM299.03,249.99l-47.02,5.12-41.99.88-20.02-.21c.57,4.31.54,8.73-.54,11.78l-20.59-.48c-2.19-.05-4.57-2.82-3.77-4.69l22.49.54c1.08-1.32,1.25-4.57.13-5.27-1.26-.79-3.85-1.45-5.64-1.74l-31.07-5.04-22.18-3.66c-15.64-2.58-30.23-7.53-45.19-12.76-21.32-7.46-59.84-25.1-44.47-46.35,13.61-18.81,34.89-25.04,56.52-31.32,11.12-3.23,21.54-5.05,33.65-5.69l-1.24-8.91-13.56,2.47c-17.75,1.93-34.34,6.8-50.46,14.58-16.65,2.39-32.13,8.83-44.36,20.56-7.37,5.92-12.83,14.32-12.01,24.15.94,11.37,8.92,19.95,17.23,27.03,11.79,10.05,25.16,15.01,39.49,19.87,17.78,6.02,34.72,10.67,53.26,13.73,18.35,3.03,35.58,7.36,54.37,8.65,27.16,1.86,53.45,2.61,80.53,1.39,26.21-1.18,50.88-5.14,76.58-10.23,26-5.15,50.66-12.82,72.97-27.22,9.78-6.31,19.34-14.7,22.74-26.09,3.17-10.65-1.69-23.76-9.51-31.25-15.86-15.18-34.13-24.36-55.34-30.19l-1.13,10.48c11.9,6.34,23.43,12.67,33.27,21.56,5.77,5.21,7.91,12.2,7.28,19.68-.53,6.28-4.37,12.56-10.29,16.93-10.9,8.05-22.98,13.27-35.77,18.11-17.78,6.73-35.33,11.49-54.37,13.57v.02ZM111.26,169.24c-6.56,3.37-12.7,6.12-19.77,8.16-13.18,3.8-25.84,7.96-38.06,15.67,1.59.53,3.71-.31,5.98-1.21-.03.53.26,2.43.94,2.26l2.11-.53s.3,1.64.34,1.86c12.22-5.3,23.66-9.56,36.41-12.02,12.32-2.63,24.75-4.41,36.4-3.55l-5.94-23.48-28.7,5.51c-15.57,2.99-29.7,8.88-43.33,16.64-8.22,4.68-13.32,11.86-14.8,22l2.29-1.24,4.39-6.78c.17-1.28-.04-4.11,1.02-4.66l4.2-2.16c4.15-2.14,8.41-5.48,12.8-7.01l24.56-8.54c9.95-3.46,20.23-5.17,31-4.88-3.76,1.3-8.26,2.12-11.84,3.95h0ZM389,200.9c-.25.48,1.33,1.19,2.46,1.43,2.81-7.04-.06-15.83-6.73-20.03l-8.61-5.43-18.82-9.13c1.06,5.55,4.82,7.3,8.85,6.79.35,1.78.33,2.75,1.09,3.05l3.43,1.35,8.1,4.47c7.67,4.24,13.82,10.53,10.23,17.49h0ZM380.13,205.01l-17.61-9.12c-4.85-2.51-7.21-6.44-8.11-11.29l3.29-2.82-4.51-3.75-5.04,14.39,6.96,3.79,22.16,11.38c.62.32,2.46.29,3.02.16s.5-2.4-.15-2.74h-.01ZM55.1,214.08c15.64-14.81,40.79-20.42,61.48-24.46,7.6-1.48,14.55-1.98,22.67-2.67.26-1.51-2.5-6.01-4.25-5.82-28.43,3.1-58.13,12.18-83.05,25.85l-6.91-3.42c.47-.85,1.3-2.12.89-2.22l-1.66-.41c-2.36-.59.72,9.17,10.84,13.16h-.01ZM375.61,186.2c-.51-2.62-5.19-5.12-7.21-4.28-1.45,3.05,1.74,4.98,4.64,5.03.92,2.06,2.17,2.79,2.57-.76h0ZM370.24,196.52l-5.27-6.55-1.28,2.12-4.86-7.53c-3.63,5.36,1.81,7.84,4.7,8.91l6.71,3.05ZM156.86,237.46c-1.22-4.32,4.34-7.31,7.79-6.29s5.66,1.12,9.4.17l-12.12-10.33c-18.33-15.63-14.77-28.52-25.87-28.21-24.57.69-51.18,9.69-72.5,21.69l-3.7,2.09c7.09,4.87,14.73,8.65,23.29,11.39l22.73,7.27c10.81,3.45,21.39,6.12,32.68,7.37s20.53,3.31,31.83,5.59c-2.65-5.29-12.15-5.87-13.52-10.73h0ZM386.62,197.17c.6-.98-1.41-4.3-2.68-4.29-1.49,0-4.21,3.21-3.93,4.65.24,1.26,1.7,2.79,3.45,4.76l3.16-5.12ZM330.56,237.15c12.82-3.73,24.95-7.04,36.57-13.21l12.11-6.43c-.74-1.1-2.73-2.37-4.36-3.31l-29.03-16.88-9.1,14.49c-4.5,7.17-9.43,14.34-16.15,19.81-5.72,4.66-12.19,7.27-19.09,12.03,9.95-.49,18.86-3.54,29.05-6.51h0ZM41.81,254.07c.41-1.36-.75-4.01-1.97-4.78-9.74-6.12-18.61-12.37-26.52-20.51-3.64-3.75-4.66-8.58-6.25-13.78l1.06,17.67,26.94,19.4c1.56,1.13,3.86,2.29,6.74,2ZM131.84,361.72c2.62.5,4.92-.3,6.52-1.58l1.04,2.96c.13.36,1.23-.25,1.45-.55l1.42-1.84,1.91,4.69c-35.6-3.57-70.62-12.99-101.55-31.95l-14.34-11.9,1.36-1.6c.19-.23-.85-1.18-1.08-1.4l-16.56-15.79c.31,3.95,1.88,7.32,4.23,10l15.48,17.62c9.4,10.7,22.66,17.28,36.1,21.82l29.29,9.89c18.6,6.28,37.26,9.73,56.59,13.42,18.47,3.53,35.92,5.68,54.78,6.26,32.75,1,64.95-.06,97.22-5.97l12.96-2.37c16.95-3.1,32.87-9.38,48.69-15.97s30.18-15.34,43.15-26.95c5.02-4.5,10.91-8.94,12.05-15.95l2.26-13.84c-4.8,4.4-6.71,9.71-9.91,15.37-8.12,14.35-27.46,25.33-42.87,33.01-18.57,9.26-37.57,15.75-58.16,18.34-2.88.36-7.51,1.33-9.66,2.67l-6.88,4.26c.05-1.99-.47-5.48-1.65-5.22l-4.18.93-4.01.89c-.87.19-.83,2.2-.99,3.83-3.21,1-7.39,1.76-10.67,1.93l-3.13-4.72c-.24.18-1.05,1.04-1.07,1.46l-.07,1.55-19.24,1.12c-.72.04-2.61-.49-3.16-.69s.55-2.38.73-2.37c11.99-.88,22.86-1.82,34.43-3.72l14.7-1.41c8.15-.78,15.57-2.57,21.87-7.69l4.2,1-3.39,3.02,17.42-7.21c25.8-7.57,50.58-18.96,70.08-38.21l-24.76,13.64c-11.53,6.35-23.18,11.82-35.55,16.25l-19.13,6.85c-.4.29-1.42,1.37-1.71,1.02l-.92-1.11c-.19-.23.96-1.22,1.39-1.41l20.9-9.5,30.42-14.78,19.95-10.01c14.82-7.43,14.37-13.09,24.54-22.01l2.52-44.74.54-34.83c-4,9.38-8.59,15.92-16.24,20.97-8.02,5.3-15.68,10.64-24.86,14.04-10.11,3.74-19.69,7.99-30.31,10.74-29.71,7.71-59.23,13.35-90.08,15.43-45.89,3.08-91.07.73-136.48-5.85-25.01-3.62-48.61-9.64-71.6-19.31l-10.67-4.49c-2.62,5.85,6.81,10.92,14.51,13.65l17.86,6.34-8.08,1.25-17.3-7.14c-2.61-1.08-4.85-3.74-6.85-5.88l-.63,7.42c-.33,3.95,4.81,4.41,7.36,5.52,7.11,3.1,14.24,5.7,20.89,9.31l25.06,13.61c-14.23-2.13-25.38-8.78-37.61-14.14-7.41-3.24-14.44-5.52-22.13-8.18-9.55-3.31-18.09-9.49-26.19-15.44-3.12-2.3-4.57-6.31-5.72-9.52l.75,16.7c.11,2.52,1.31,7.59,3.13,9.47,8.85,9.12,20.06,13.39,30.88,19.42,13.26,7.39,26.03,14.36,40.62,19.16,2.95.97,5.72,2.76,6.7,5.86-14.53-2.72-27.29-7.35-40.06-13.32l-13.69-6.4c-10.51-4.92-20.32-11.34-27.41-21.44-.37,2.05-.33,7.29.89,9.72,8.5,7.19,17.27,12.19,26.75,17.5l18,10.09c9.29,5.21,18.44,10.08,28.79,13.12l29.48,8.69-.84-3.3c-.18-.69,2.2-1.54,2.93-1.47,2.97.29,5.82,3.06,5.44,6.39-6.48-.4-13.41.81-19.69-.58-13.54-2.99-27.09-6.41-39.22-12.9l-31.89-17.06c-7.07-3.78-13.35-8.12-17.63-13.94-1.48,5.87.98,8.34,4.92,10.71l13.68,8.23,13,7.19c10.94,6.05,21.35,11.77,32.79,17.16,18.44,8.7,37.47,13.81,58.16,18.11-3.03,3.07-6.97.41-10.29-.16-17.52-2.96-33.73-7.97-50.09-14.77-8.21-3.41-15.57-7.61-23.48-11.49l-20.22-9.92c4.78,6.38,10.59,9.61,16.74,13.35,22.97,13.97,57.73,25.93,84.42,31.03h-.04ZM197.97,245.64l-7.04-4.58-12.67-6.94-3.36,3.62,16.78,5.75c1.57.54,3.24,4.66,6.29,2.15h0ZM42.81,265.84c.41-5.97-2.07-6.22-4.76-7.76l-15.29-8.78c-6.25-3.59-11.47-8.28-14.52-14.37v10.13l3.44,3.21c7.32,5.57,14.73,9.94,22.64,14.53,2.75,1.6,6.1,2.77,8.49,3.04Z"/>
  <path class="st8" d="M131.84,361.72c-26.69-5.1-61.45-17.06-84.42-31.03-6.15-3.74-11.96-6.97-16.74-13.35l20.22,9.92c7.91,3.88,15.26,8.08,23.48,11.49,16.36,6.8,32.56,11.81,50.09,14.77,3.32.56,7.26,3.23,10.29.16-20.7-4.31-39.72-9.41-58.16-18.11-11.44-5.4-21.84-11.11-32.79-17.16l-13-7.19-13.68-8.23c-3.94-2.37-6.4-4.83-4.92-10.71,4.28,5.82,10.55,10.16,17.63,13.94l31.89,17.06c12.14,6.49,25.68,9.91,39.22,12.9,6.28,1.39,13.21.18,19.69.58.38-3.33-2.48-6.11-5.44-6.39-.73-.07-3.11.77-2.93,1.47l.84,3.3-29.48-8.69c-10.35-3.05-19.5-7.92-28.79-13.12l-18-10.09c-9.48-5.31-18.25-10.31-26.75-17.5-1.22-2.42-1.26-7.66-.89-9.72,7.09,10.11,16.9,16.52,27.41,21.44l13.69,6.4c12.77,5.98,25.53,10.6,40.06,13.32-.97-3.1-3.74-4.89-6.7-5.86-14.59-4.8-27.36-11.77-40.62-19.16-10.82-6.03-22.03-10.3-30.88-19.42-1.82-1.87-3.01-6.94-3.13-9.47l-.75-16.7c1.15,3.21,2.6,7.23,5.72,9.52,8.1,5.96,16.64,12.13,26.19,15.44,7.69,2.67,14.72,4.94,22.13,8.18,12.24,5.36,23.39,12.01,37.61,14.14l-25.06-13.61c-6.65-3.61-13.78-6.22-20.89-9.31-2.55-1.11-7.69-1.57-7.36-5.52l.63-7.42c2,2.14,4.24,4.8,6.85,5.88l17.3,7.14,8.08-1.25-17.86-6.34c-7.71-2.74-17.14-7.8-14.51-13.65l10.67,4.49c23,9.67,46.59,15.69,71.6,19.31,45.41,6.57,90.59,8.93,136.48,5.85,30.85-2.07,60.37-7.71,90.08-15.43,10.62-2.76,20.2-7,30.31-10.74,9.18-3.4,16.84-8.74,24.86-14.04,7.65-5.06,12.23-11.6,16.24-20.97l-.54,34.83-2.52,44.74c-10.17,8.92-9.72,14.57-24.54,22.01l-19.95,10.01-30.42,14.78-20.9,9.5c-.42.19-1.57,1.18-1.39,1.41l.92,1.11c.29.35,1.31-.73,1.71-1.02l19.13-6.85c12.37-4.43,24.02-9.9,35.55-16.25l24.76-13.64c-19.51,19.24-44.29,30.63-70.08,38.21l-17.42,7.21,3.39-3.02-4.2-1c-6.3,5.12-13.72,6.91-21.87,7.69l-14.7,1.41c-11.57,1.9-22.44,2.84-34.43,3.72-.18-.01-1.28,2.17-.73,2.37s2.45.73,3.16.69l19.24-1.12.07-1.55c.02-.42.83-1.28,1.07-1.46l3.13,4.72c3.28-.17,7.45-.93,10.67-1.93.16-1.62.13-3.63.99-3.83l4.01-.89,4.18-.93c1.18-.26,1.7,3.23,1.65,5.22l6.88-4.26c2.16-1.34,6.79-2.31,9.66-2.67,20.59-2.59,39.59-9.08,58.16-18.34,15.41-7.68,34.74-18.66,42.87-33.01,3.2-5.66,5.12-10.96,9.91-15.37l-2.26,13.84c-1.14,7.01-7.03,11.45-12.05,15.95-12.97,11.6-26.95,20.21-43.15,26.95s-31.74,12.86-48.69,15.97l-12.96,2.37c-32.26,5.9-64.47,6.97-97.22,5.97-18.85-.58-36.3-2.73-54.78-6.26-19.32-3.69-37.99-7.15-56.59-13.42l-29.29-9.89c-13.45-4.54-26.71-11.12-36.1-21.82l-15.48-17.62c-2.35-2.68-3.92-6.05-4.23-10l16.56,15.79c.23.22,1.27,1.18,1.08,1.4l-1.36,1.6,14.34,11.9c30.93,18.96,65.94,28.38,101.55,31.95l-1.91-4.69-1.42,1.84c-.23.29-1.33.9-1.45.55l-1.04-2.96c-1.6,1.29-3.9,2.09-6.52,1.58h.04ZM369.5,273.88c16.86-4.57,36.21-16.32,47.44-27.83,2.99-3.07,5.73-6.29,5.51-11.09l-12.53,10.99c-13.52,9.79-27.54,17.18-42.83,24.39l2.41,3.52v.02ZM356.79,291.74l34.87-16.08c11.26-5.19,20.16-13.45,29.75-21.11l.6-6.58-9.08,7.02c-10.99,9.92-23.11,17.8-37.07,22.66-6.82,4.15-14.04,6.86-19.08,14.08h.01ZM354.63,301.57c8.71.54,14.17-4.54,20.69-7.41,15.59-3.98,28.75-11.48,40.51-22.31,4.24-3.91,8.91-8.16,7.53-15.06-3.24,4.55-6.56,7.65-10.84,10.81-7.54,5.56-14.5,11.94-23.12,15.78-12.17,5.42-25.09,9.04-34.76,18.19h-.01ZM91.12,300.53c-7-3.61-13.23-6.82-20.09-9.48-8.65-3.35-16.56-6.83-24.7-11.4-2.45-1.38-6.27-2.01-8.84-3.16-9.66-4.32-17.89-10.01-27.12-16.82l-.29,2.91c-.07.7,1.32,1.87,1.91,2.55,7.25,8.37,16.33,14.05,26.71,18.28l43.26,17.63,25.91,8.94c-3.32-7.22-10.94-6.46-16.74-9.45h0ZM369.72,316.19c12.91-5.44,23.61-12.88,33.93-21.42l15.4-12.74c3.37-2.78,5.12-7.02,4.75-10.84-9.09,8.99-18.6,15.98-28.99,22.66-3.52,4.97-7.86,8.74-13.18,11.89l-29.39,15.45c7.01,1.05,11.74-2.58,17.48-5h0ZM338.99,275.95l-19.16,5.74c6.87.3,13.25-1.67,19.16-5.74ZM303.87,300.12l31.5-15.76c2.35-1.18,4.62-1.85,5.66-5.06l-13.04,6.65c-8.4,4.28-17.03,7.79-24.11,14.18h-.01ZM161.59,305.5l13.53-.38c5.65-.16,11.81.62,14.6-4.85.41-.8-.55-3.37-1.25-3.94l-13.14-2.17c-.42-2.18-.85-5.05-1.52-6.29-.29-.54-9.97-5.22-15.16,3.47l-1.17,1.96c-.17.29-.23.59.1.6l2.85.11c.33-1.89.74-3.75,1.72-4.85,1.18-1.32,5.04-1.54,6.5-1.02,2.34.83,4.57,2.56,4.33,4.62-.19,1.63-1.42,3.77-2.38,5.03.55.47,2.72,3.97,1.67,4.65-4.16,2.68-10.22,2.18-13.84-3.48-1.18,1.35,1.18,6.61,3.15,6.56v-.02ZM344.41,338.47c8.9-2.95,16.98-6.57,25.4-10.54l23.19-10.9c12.64-5.94,27.13-16.96,28.88-31.53-6.56,6.38-11.8,13.07-18.88,18.51-9.09,6.97-19.33,11.33-29.43,16.68-11.08,5.86-21.97,12.05-34.12,14.55-1.44-.8-3.82-1.81-4.6-1.86.58,5.37,5.85,6.33,9.57,5.09h-.01ZM326.42,300.79l10.55-4.48c.69-.29.71-3.6.26-3.24l-24.39,10.51c4.49.31,8.65-.7,13.59-2.79h-.01ZM375.02,305.22l16.16-9.14,1.88-3.09-6.51.48c-11.46,7.34-22.52,13.37-34.67,19.55l-1.62,2.4c-.4.59,2.2,1.82,3.05,1.37l21.7-11.57h.01ZM185.71,315.84c-2.5-6.74-6.56-3.31-9.59-3.4l-5.43-.16,1.83,5.54,2.49-3.4,10.69,1.41h.01ZM186.96,324.52l-10.31.02c-1.81,0-3.9-2.25-5.05-4.24-1.83.63-1.09,6.65,1.36,6.68l13.95.15c.44,0,.54-2.61.05-2.6h0ZM191.24,335.27l-1.8-1.56-17.04,1.37c-.84.07-1.03,2.9-.63,3.26l19.48-3.07h-.01ZM196.63,342.19c-2.89-2-4.09-.77-6.61.03-5.51,1.75-11.3,2.57-17.88,3.77,2.76,4.87,16.33-.18,24.49-3.8ZM204.54,351.69c-.13,1.88.17,2.69.67,2.54.33-.1,2.14-1.04,2.29-1.35.55-1.18-1.71-4.65-2.95-4.25l-5.18,1.64c-4.99,1.58-10.19-.3-16.15.59,7.7,2.73,19.39,3.99,21.32.84h0ZM183.34,362.68c1.19.17,3.1-1.7,3.22-3.13.08-.94-1.8-1.49-3.15-1.8l-6.64-1.48c-.34.45-.76,4.3-.67,5.38l7.24,1.04h0ZM227.07,363.82l-12.22-2c-.52-1.79-3.44-3.82-4.21-2.88-.64.78-1.46,2.52-2.1,3.89l-3.36-2.25c-.66-.44-2.17.96-2.72,1.19l-7.85-2.96,2.08,3.33c-2.79-2.12-3.94-3.18-6.81-4.08-1.08-.34-3.62,2.36-3.11,3.33.4.77,2.1,1.78,3.17,1.82l14.52.55,32.31,1.66.3,13.12.73.56.41-12.74c1.49.28,2.84.58,2.63.17-.23-.44-.92-2.06-1.37-2.09l-12.44-.61h.04Z"/>
  <path class="st5" d="M261.25,238.22c-27.33-12.18-45.26-36.22-51.75-64.91-4.96-21.94-7.01-43.85-2.23-66.03,1.74-8.05,4.01-15.77,6.24-23.64,3.46-12.22,8.87-22.8,15.64-33.39,12.94-20.24,30.44-29.67,52.09-39.12,20.58-3.09,39.56,5.38,51.1,22.77,13.23,19.95,21.14,42.89,22.84,67.08,1.09,15.5.99,30.28-1.87,45.26-3.16,16.53-6.83,32.15-13.46,47.56-9.46,21.97-27.02,38.85-49.71,46.25-9.66,3.15-19.21,2.49-28.89-1.83ZM292.06,31.68c0,1.13-1.48,3.69-2.55,3.84-4.82.67-5.92-5.24-6.23-12.35h6.64c-3.24-1.26-4.63-1.18-8.65-1.16l1.93,14.39,8.96-.15c1.4-4.71,1.82-9.47-1.6-13.86l1.49,9.29h0ZM330.6,43.75c-1.02-1.64-6.94-.55-7.3,1.33-.33,1.75,2.83,4.09,4.35,4.05,1.68-.04,4.28-3.24,2.95-5.38ZM255.05,64.89l-5.02-14.25c-.5-1.04-3.67.82-3.26,1.94.34.93,1.68,2.38,2.68,3.18l5.6,9.13h0ZM338.3,59.83c-1.29-1.55-6.11-.78-6.29.89-.29,2.69,2.35,4.7,4.1,4.08s3.46-3.45,2.2-4.97h-.01ZM232.49,98.85c-.99,1.13-.56,5.82,1.49,6.17,2.24.39,4.57-3.03,4.64-4.9.05-1.48-.9-4.15-2.02-5.58-4.72-6.06-1.82-10.62-6-12.76l.2,10.24c4.19,1.07,4.97,4.13,4.18,8.01l-.43,2.1c-.08.41-1.28-.29-1.39-.7l-.67-2.6v.02ZM327.67,95.96c4.54-4.76.9-10.97-2.33-13.79l2.33,13.79ZM314.34,91.27l-7.07-1.85c-.97-.03-1.42,3.43-.62,4.12.66.57,2.72,1.88,3.35,1.28l2.44-2.37c1.04,1.76,2.09,1.93,1.91-1.18h0ZM290.09,94.65l.82-4.05-6.84-.2-3.09,3.54c-3.2.39-5.95,2.21-7.09,4.74,7.4-4.95,15.59-.97,16.2-4.02h0ZM282.97,156.36c12.24-1.81,18.2-12.11,21.08-22.46,3.51-12.64-.13-27.43-13.76-32.25-4.63-1.63-13.62,1.76-16.86,5.65-8.27,9.93-10.61,23.41-7.25,35.57,1.93,6.98,9.2,14.61,16.79,13.49ZM261.7,154.7c.11-.41-.03-2.73-.44-3.49-5.32-9.8-4.36-29.49-3.46-43.37-.65,1.96-1.77,5.9-1.77,8l.03,25.35c0,4.61,2.97,9.52,5.64,13.5h0ZM331.86,135.36l6.6-7.23,7.9,1.26-.44-18.18c-.03-1.36-4.57-.62-5.04.52l-1.07,2.64c-.13.33.8.34,1.15.3l1.95-.22c1.4,1.49,2.75,6.26.92,8.43-7.29,8.67-18.63,8.05-17.23,13.42.19.75,1.86,1.65,2.57,1.36s1.63-1.14,2.68-2.3h0ZM220.58,123.98c1.12.07,2.5-3.28,2.46-4.41s-1.81-3.37-2.92-3.24c-3.16.59-3.06,7.44.46,7.65h0ZM223.96,135.22c-1.55-2.73-7.57-2.01-8.09.26.49,2.56,2.99,4.78,4.66,4.74,1.54-.04,4.23-3.59,3.43-4.99h0ZM345.14,146.8l-6.1,10.54-5.24-.57,8.01-6.88c-2.51-2.33-4.92-4.26-7.2-5.21-3.38,2.71-4.82,6.05-3.91,9.08,1.82,6.04,6.38,5.4,8.58,8.72.22.33-1.29.65-1.63.45l-1.67-1c-.55-.33-1.81-.79-2.42-.98s-1.05,3.17-.44,3.36l5.41,1.69c3.08-6.65,5.24-12.08,6.6-19.19h0ZM320.57,166.67c2.4-2.47,2.17-7.49.09-9.47-1.95-.11-3.87,3.32-3.93,5.35-.06,1.67,2.46,4.88,3.84,4.12h0ZM228.09,163.68c-1.73-1.32-4.92.19-5.41,1.51-.4,1.1-.77,4.31.29,4.8,1.19.55,4.32-.39,5.05-1.37s1.03-4.2.07-4.94ZM266.06,177.32c5.94-2.69,6.02-8.95,2.08-12.26l-2.08,12.26ZM282.86,175.38c1.87,1.6,4.96-2.08,5.11-3.97.2-2.54-2.1-4.98-4.86-3.99-1.28,1.13-1.55,6.5-.25,7.95h0ZM322.92,202.55l.92.04,8.72-25.05c.37-1.06,1.79-3.52,1-4.15l-3.03-2.41-3.85,15.97-3.76,15.6h0ZM316.27,178.16l-3.47,1.06c-1.02.31.22,6.64,4.11,6.71,1.64-3.3.32-8.06-.63-7.77h-.01ZM245.78,196.55c-2.97-4.06-6.27-6.27-9.78-8.45l-2.53-1.57c-2.9-1.8-3.17,7.6,12.31,10.01h0ZM237.21,208.7c2.62,2.62,7.34,2.11,10,.28.79-3.44.28-8.16-.59-11.19-.67,3.95-2.02,9.27-5.33,10.3l-4.08.61h0ZM273.14,236.96c10.18,0,30.34-8.91,30.65-13.76l.5-7.9-6.61-11.97c-.76,2.8.73,5.49,1.55,8.12l3.75,11.98c-2.79,2.34-7.58,5.47-11.6,6.92l-18.24,6.6h0ZM280.88,218.2c1.85-2,1.41-4.84.25-5.82-1.05-.89-5.25-.8-5.25.56-.04,1.96,3.36,5.35,5,5.26h0ZM272.61,229.53l5.2-4.19c-6.55-.26-11.46,1.19-16.85,5.38,1.73,1.47,4.5,2.75,6.48,3.01-.64-2.81-.21-5.13,1.05-5.78.92-.48,3,.74,4.12,1.58Z"/>
  <path class="st2" d="M299.03,249.99c19.04-2.07,36.59-6.83,54.37-13.57,12.79-4.84,24.87-10.06,35.77-18.11,5.91-4.37,9.76-10.65,10.29-16.93.63-7.48-1.51-14.47-7.28-19.68-9.85-8.9-21.37-15.23-33.27-21.56l1.13-10.48c21.21,5.82,39.47,15.01,55.34,30.19,7.82,7.48,12.69,20.6,9.51,31.25-3.4,11.4-12.96,19.78-22.74,26.09-22.31,14.4-46.96,22.07-72.97,27.22-25.71,5.09-50.37,9.04-76.58,10.23-27.08,1.22-53.37.47-80.53-1.39-18.79-1.29-36.02-5.62-54.37-8.65-18.54-3.06-35.48-7.71-53.26-13.73-14.33-4.86-27.69-9.82-39.49-19.87-8.32-7.08-16.3-15.66-17.23-27.03-.81-9.83,4.65-18.22,12.01-24.15,12.22-11.73,27.71-18.17,44.36-20.56,16.12-7.78,32.71-12.65,50.46-14.58l13.56-2.47,1.24,8.91c-12.11.64-22.53,2.46-33.65,5.69-21.63,6.28-42.91,12.51-56.52,31.32-15.37,21.25,23.15,38.89,44.47,46.35,14.96,5.24,29.55,10.18,45.19,12.76l22.18,3.66,31.07,5.04c1.78.29,4.37.95,5.64,1.74,1.12.7.95,3.95-.13,5.27l-22.49-.54c-.81,1.87,1.57,4.64,3.77,4.69l20.59.48c1.08-3.05,1.1-7.47.54-11.78l20.02.21,41.99-.88,47.02-5.12v-.02ZM400.23,174.97c-5-4.12-10.09-8.55-15.98-11.07l-19.7-8.41c4.08,3.82,8.26,7.2,12.71,9.2l22.96,10.28h0ZM414.09,189.82c-1.5-7.15-6.83-12.14-13.03-13.88l13.03,13.88ZM17.12,202.29c-1-1.72.21-7.28,2.19-7.76,3.83-.94,8.02-3.79,7.38-7.46-3.4.47-6.31.62-7.76,1.57-2.82,1.83-8.27,15.62-1.35,19.76,2.49,1.5,5.92-3.96,4.2-5.85-.75.48-4.03.82-4.65-.26h-.01ZM74.71,244.11c.45-3.71-2-7.42-4.8-6.97-2.01.32-3.63,5.54-2.27,7.01,1.83,1.96,6.42,1.71,7.06-.04h.01Z"/>
  <path class="st7" d="M175.62,187.97c.74,4.74,1.96,8.8,3.73,12.68l4.38,9.59,8.53,16.89c-10.79-10.32-16.61-23.28-20.53-37.18l-3.52-12.45-7.86-36.66.65,21.23c.39,12.56,4.17,22.06,3.71,32.68,1.78-2.42,2.41-1.81,2.18.12l10.37,23.46c-17.06-19.8-20.59-36.45-21.72-61.23l-.97-21.38c-1.87,5.93-2.26,15.04-2,22.11l.81,21.86c-4.68-7-4.37-18.62-4.84-26.63l-.9-15.2-1.99,7.16-2.71-5.47.55,19.47c.1,3.6.84,7.14,1.7,10.18l1.35-3.54c2.73,10,5.36,19.78,9.36,29.91,3.66,9.27,14.44,19.2,12.72,19.73l-2.56.79c-6.4-7.57-12.28-14.86-16.58-23.68-.81-2.96-2.56-5.34-3.86-7.98-9.04-18.32-10.53-37.87-10.26-58.85l10.43.83-1.29,4.23c2.68-.26,4.69-1.04,5.36-2.7,4.46-11.09,7.24-28.84-1.01-31.53l-10.66-3.47c1.44-7.92,4.02-14.44,7.06-21.71,12.96-30.93,30.98-57.06,64.68-61.22l-16.12,13.56c3.43,1,5.46-.18,7.45-2.29l7.3-7.72c3.4-3.59,7.44-6.16,12.8-6.47-7.36,6.12-13.39,11.9-18.09,20.12-.27.19-1.53,1.13-1.27,1.36l1.68,1.47c.96.84,21.06-30.11,36.58-22.52-15.83,3.07-23.43,14.16-32.01,27.34,9.3-7.81,14.92-15.79,25.15-20.83l4.55.52c4.42-3.56,9.91-7.04,16.45-5.39-8.53,3.45-16.76,7.25-24.2,12.99l-15.31,11.82c7.9-2.99,14.25-7.74,21.6-11.41l20.74-10.37c3.11-1.56,8.16-2.11,12.36-2.24-18.72,9.94-33.54,18.22-44.26,37.35-4.1,7.32-8.84,14.05-12.15,21.82-12.28,28.81-18.05,59.76-13.03,90.95,1.26,7.83,3.88,15.41,5.95,22.9,4.28,15.49,11.69,27.99,22.55,39.83l-6.73-4.31c1.85,3.48,5.11,6.32,9.36,7.21,7.75,8.15,16.62,14.11,26.45,18.15-11.05-1.56-19.06-8.21-27.49-14.12-16.64-11.66-26.18-29.43-31.27-48.88-4.2-16.04-6.92-31.1-7.43-48-2.93,34.54,6.69,67.68,24.5,99.03-24.66-28.43-30.42-55.76-30.82-93.84l-.44-41.18c-1.69,4.49-1.96,8.63-1.81,13.15.55,16.5-.91,32.42-1.33,48.15l.93,18.82c.35,7.15,2.33,13.9,5.32,20.28l16.44,35.04c-7.56-9.03-12.97-18.61-17.71-29.01-7.59-16.66-9.9-38.33-15.35-58.47-2.34-8.64-3.69-20.02,1.86-21.45-5.52-1.82-3.99-6.55-3.61-10.58,1.44-15.32,5.31-19.93,7.56-28.68,3.39-13.16,8.29-24.79,16.55-36.22-5.33,1.07-6.35,6.18-8.57,10.13-3.23,5.74-7.02,11.75-8.57,18.16-2.39,9.88-4.72,18.82-7.69,28.66-1.55,5.14-.18,11.71-.87,17.06-1.31,10.21.38,19.2,1.93,29.16l5.75,36.84v.07ZM148.58,87.11l9.68-28.18c-4.57,5.78-5.98,12.37-8.12,19.25-.96,3.07-2.18,5.64-1.55,8.93h-.01ZM170.01,60.41c-5.25,1.78-6.56,11.39-8.74,19.12,6.21,3.27,3.34-5.99,8.74-19.12ZM200.69,63.04c.02-.73-3.09-1.03-3.43-.31l-5.15,10.88c4.3,1.38,8.42-5.68,8.58-10.56h0Z"/>
  <path class="st4" d="M156.86,237.46c1.37,4.86,10.87,5.43,13.52,10.73-11.3-2.28-20.96-4.38-31.83-5.59s-21.87-3.92-32.68-7.37l-22.73-7.27c-8.56-2.74-16.2-6.52-23.29-11.39l3.7-2.09c21.32-12.01,47.93-21,72.5-21.69,11.11-.31,7.54,12.58,25.87,28.21l12.12,10.33c-3.74.95-6.01.84-9.4-.17s-9.01,1.97-7.79,6.29h0ZM143.87,212.25c-.39-5.97-4.28-8.79-10.03-8.48-6.07.32-5.11,4.25-9.24,6.36-.55.28-4.23-8.94-8.16-7.72-5.17,1.61-6.75,7.29-5.59,11.29s6.42,8.38,10.54,6.83c2.39-3.92,4.89-8.78,7.6-12.33s7.78-3.48,10.42-.67l4.44,4.73h.02ZM105.57,221.85l1.44-6.14-4.62,6.07c-3.7.73-9.23.29-12.44-2.92-1.58-1.58-.31-5.2,1.1-6.54,2.9-2.74,9.78.03,9.43-.71l1.29,2.72c1.32-3.24,1.32-6.6-.49-10.23-8.34,3.09-19.25,10.2-18.68,10.55l-1.61-1c-4.27,1.11-8.05,1.49-13.51,1.84,11.74,5.53,26.13,8.91,39.52,11.71,3.76.79,7.85,2.45,11.05-2.22-3.66-1.57-6.18,4.49-12.48-3.13h0ZM139.37,223.3c1.87-5.14.78-9.61-4.73-10.98l-4.35,9,9.08,1.98h0ZM130.25,232.5l-4.6-7.32-7.9,5.67c4.14,1.86,8.11,3.08,12.5,1.65h0ZM149.94,237.14c1.21.18,2.92-2.47,2.81-3.55-.21-2.21-7.42.16-11.76-2.04l3.42-1.7c.57-.28.74-2.06.65-2.37-6.51,3.57-11.51,1.49-11.94,5.12-.11.91,1.78,2.34,2.84,2.5l13.96,2.05h.02Z"/>
  <path class="st1" d="M111.26,169.24c3.58-1.84,8.07-2.66,11.84-3.95-10.77-.29-21.06,1.42-31,4.88l-24.56,8.54c-4.39,1.53-8.64,4.87-12.8,7.01l-4.2,2.16c-1.06.55-.85,3.38-1.02,4.66l-4.39,6.78-2.29,1.24c1.48-10.14,6.58-17.32,14.8-22,13.64-7.77,27.77-13.65,43.33-16.64l28.7-5.51,5.94,23.48c-11.65-.86-24.08.91-36.4,3.55-12.74,2.46-24.19,6.72-36.41,12.02-.04-.22-.31-1.87-.34-1.86l-2.11.53c-.68.17-.97-1.73-.94-2.26-2.27.9-4.38,1.74-5.98,1.21,12.22-7.72,24.88-11.88,38.06-15.67,7.08-2.04,13.21-4.79,19.77-8.16h0Z"/>
  <path class="st6" d="M81.07,102.74c-3.59-.82-6.94-2.04-11.28-4.62,2.14-1.83,3.81-2.67,6.4-3.87-.61-.17-3.84-.52-4.23-1.61l-1.74-4.89-7.56,3.08c-1.04,3.23-1.18,6.19-.92,10.78-10.26-1.82-16.54-7.59-25.68-6.14-4.99.79-8.09-3.95-7.86-8s3.86-8.26,8.93-7.86c6.41.51,12.75,2.77,19.18,3.96l12.02,2.21c26.12,4.8,51.57,8.42,77.16,15.76,1.55,1.69,1.91,5.88,1.05,7.32-23.77-4.14-45.53-8.33-69.03-14.52-.12,2.84,1.06,4.14,3.56,8.42v-.02ZM49.82,93.7c.81-.77-.04-4.7-1.79-5.55-4.78-2.3-8.99-2.9-14.44-2.56-.84,2.44-1.18,6.17-.77,7.7l2.74-4.23c.44-.69,2.91.53,3.64,1.05,4.42,3.2,6.99.69,10.62,3.58h0ZM59.74,98.9l-1.79-6.93c.41-2.31-1.04-5.09-2.74-6.3l-3.29,6.65c-.63,1.26-.25,3.85,1.07,4.3l6.74,2.28h0Z"/>
  <path class="st4" d="M330.56,237.15c-10.19,2.97-19.1,6.01-29.05,6.51,6.9-4.76,13.37-7.37,19.09-12.03,6.72-5.47,11.65-12.64,16.15-19.81l9.1-14.49,29.03,16.88c1.63.95,3.62,2.21,4.36,3.31l-12.11,6.43c-11.62,6.17-23.75,9.47-36.57,13.21h0ZM345.15,223.84c-3.11-4.68-2.99-12.06,1.62-16.18,5.27,2.99,10.48,6.34,14.61,9.98.92.81,1.97,3.94,3.08,3.57l4.94-1.66-8.72-6.36-9.56-7.07c-.89-.66-3.68-1.99-4.33-1.2l-2.63,3.23c-5.06,6.2-6.86,12.65-1.67,19.82,2.93-.86,5.59-1.94,8.02-3.24l5.76-3.07-6.68-5.5,1.05,6.32c.22,1.34-4.67,2.59-5.49,1.36h0Z"/>
  <path class="st1" d="M55.1,214.08c-10.13-3.99-13.21-13.74-10.84-13.16l1.66.41c.41.1-.42,1.37-.89,2.22l6.91,3.42c24.92-13.67,54.62-22.75,83.05-25.85,1.75-.19,4.51,4.31,4.25,5.82-8.12.69-15.07,1.19-22.67,2.67-20.69,4.04-45.84,9.65-61.48,24.46h.01Z"/>
  <path class="st3" d="M131,112.03l4.27,5.75-30.04-6.95-22.27-4.97,1.48-4.53c4.52,1.73,9.22,2.34,14.35,3.3l19.92,3.73c3.77.71,8.61,2.51,12.29,3.66h0Z"/>
  <path class="st8" d="M42.81,265.84c-2.38-.27-5.74-1.45-8.49-3.04-7.91-4.59-15.32-8.97-22.64-14.53l-3.46-3.21v-10.13c3.06,6.09,8.28,10.78,14.53,14.37l15.29,8.78c2.69,1.54,5.17,1.8,4.76,7.76h.01Z"/>
  <path class="st8" d="M41.81,254.07c-2.88.29-5.18-.87-6.74-2l-26.94-19.4-1.06-17.67c1.59,5.2,2.61,10.04,6.25,13.78,7.91,8.14,16.77,14.38,26.52,20.51,1.22.77,2.38,3.42,1.97,4.78Z"/>
  <path class="st1" d="M380.13,205.01c.65.34.71,2.61.15,2.74s-2.39.16-3.02-.16l-22.16-11.38-6.96-3.79,5.04-14.39,4.51,3.75-3.29,2.82c.91,4.85,3.26,8.78,8.11,11.29l17.61,9.12h.01Z"/>
  <path class="st1" d="M389,200.9c3.59-6.96-2.56-13.26-10.23-17.49l-8.1-4.47-3.43-1.35c-.76-.3-.74-1.27-1.09-3.05-4.02.51-7.79-1.24-8.85-6.79l18.82,9.13,8.61,5.43c6.67,4.2,9.54,12.99,6.73,20.03-1.13-.24-2.71-.95-2.46-1.43h0Z"/>
  <path class="st4" d="M197.97,245.64c-3.06,2.51-4.73-1.61-6.29-2.15l-16.78-5.75,3.36-3.62,12.67,6.94,7.04,4.58h0Z"/>
  <path class="st1" d="M370.24,196.52l-6.71-3.05c-2.88-1.06-8.32-3.55-4.7-8.91l4.86,7.53,1.28-2.12,5.27,6.55Z"/>
  <path class="st1" d="M386.62,197.17l-3.16,5.12c-1.75-1.96-3.21-3.49-3.45-4.76-.28-1.44,2.44-4.64,3.93-4.65,1.27,0,3.28,3.31,2.68,4.29Z"/>
  <path class="st1" d="M375.61,186.2c-.4,3.54-1.65,2.82-2.57.76-2.9-.05-6.09-1.98-4.64-5.03,2.02-.85,6.71,1.65,7.21,4.28h0Z"/>
  <path d="M91.12,300.53c5.8,2.99,13.43,2.23,16.74,9.45l-25.91-8.94-43.26-17.63c-10.38-4.23-19.46-9.91-26.71-18.28-.59-.68-1.98-1.84-1.91-2.55l.29-2.91c9.22,6.81,17.45,12.5,27.12,16.82,2.58,1.15,6.39,1.79,8.84,3.16,8.13,4.57,16.04,8.05,24.7,11.4,6.86,2.66,13.09,5.87,20.09,9.48h0Z"/>
  <path d="M344.41,338.47c-3.72,1.23-8.98.28-9.57-5.09.77.05,3.16,1.06,4.6,1.86,12.15-2.49,23.04-8.69,34.12-14.55,10.11-5.35,20.35-9.71,29.43-16.68,7.08-5.44,12.31-12.13,18.88-18.51-1.75,14.57-16.24,25.58-28.88,31.53l-23.19,10.9c-8.43,3.96-16.5,7.58-25.4,10.54h.01Z"/>
  <path d="M354.63,301.57c9.67-9.15,22.59-12.77,34.76-18.19,8.63-3.84,15.58-10.23,23.12-15.78,4.28-3.15,7.6-6.26,10.84-10.81,1.38,6.9-3.29,11.15-7.53,15.06-11.76,10.84-24.92,18.33-40.51,22.31-6.52,2.87-11.98,7.95-20.69,7.41h.01Z"/>
  <path d="M369.72,316.19c-5.74,2.42-10.47,6.04-17.48,5l29.39-15.45c5.32-3.14,9.67-6.92,13.18-11.89,10.39-6.68,19.9-13.67,28.99-22.66.37,3.82-1.39,8.05-4.75,10.84l-15.4,12.74c-10.32,8.54-21.02,15.97-33.93,21.42h0Z"/>
  <path d="M369.5,273.88l-2.41-3.52c15.3-7.22,29.31-14.61,42.83-24.39l12.53-10.99c.21,4.8-2.52,8.02-5.51,11.09-11.23,11.51-30.58,23.26-47.44,27.83v-.02Z"/>
  <path d="M356.79,291.74c5.03-7.22,12.25-9.94,19.08-14.08,13.96-4.86,26.08-12.74,37.07-22.66l9.08-7.02-.6,6.58c-9.59,7.66-18.5,15.92-29.75,21.11l-34.87,16.08h-.01Z"/>
  <path d="M375.02,305.22l-21.7,11.57c-.84.45-3.44-.78-3.05-1.37l1.62-2.4c12.15-6.18,23.21-12.21,34.67-19.55l6.51-.48-1.88,3.09-16.16,9.14h-.01Z"/>
  <path d="M161.59,305.5c-1.97.06-4.33-5.21-3.15-6.56,3.62,5.66,9.68,6.16,13.84,3.48,1.05-.68-1.12-4.18-1.67-4.65.96-1.26,2.2-3.4,2.38-5.03.24-2.07-1.99-3.79-4.33-4.62-1.46-.52-5.33-.3-6.5,1.02-.98,1.1-1.39,2.96-1.72,4.85l-2.85-.11c-.32-.01-.27-.31-.1-.6l1.17-1.96c5.18-8.69,14.87-4.01,15.16-3.47.67,1.24,1.11,4.11,1.52,6.29l13.14,2.17c.7.58,1.66,3.14,1.25,3.94-2.78,5.47-8.94,4.69-14.6,4.85l-13.53.38v.02ZM184.88,303.1c1.23.02,3.21-2.42,2.94-3.51s-2.31-2.73-3.51-2.81l-9.43-.66-1.03,6.84,11.02.15h.01Z"/>
  <path d="M227.07,363.82l12.44.61c.45.02,1.14,1.64,1.37,2.09.21.4-1.14.11-2.63-.17l-.41,12.74-.73-.56-.3-13.12-32.31-1.66-14.52-.55c-1.08-.04-2.77-1.05-3.17-1.82-.51-.96,2.03-3.66,3.11-3.33,2.87.9,4.02,1.97,6.81,4.08l-2.08-3.33,7.85,2.96c.55-.23,2.06-1.63,2.72-1.19l3.36,2.25c.64-1.37,1.45-3.12,2.1-3.89.77-.93,3.69,1.09,4.21,2.88l12.22,2h-.04Z"/>
  <path d="M303.87,300.12c7.08-6.39,15.71-9.89,24.11-14.18l13.04-6.65c-1.04,3.21-3.31,3.88-5.66,5.06l-31.5,15.76h.01Z"/>
  <path d="M196.63,342.19c-8.16,3.62-21.73,8.66-24.49,3.8,6.59-1.2,12.38-2.02,17.88-3.77,2.52-.8,3.72-2.03,6.61-.03Z"/>
  <path d="M326.42,300.79c-4.94,2.1-9.1,3.11-13.59,2.79l24.39-10.51c.45-.35.44,2.95-.26,3.24l-10.55,4.48h.01Z"/>
  <path d="M204.54,351.69c-1.93,3.15-13.62,1.89-21.32-.84,5.96-.89,11.16.99,16.15-.59l5.18-1.64c1.23-.39,3.5,3.07,2.95,4.25-.15.32-1.95,1.25-2.29,1.35-.5.15-.79-.66-.67-2.54h0Z"/>
  <path d="M186.96,324.52c.49,0,.38,2.61-.05,2.6l-13.95-.15c-2.44-.03-3.18-6.05-1.36-6.68,1.15,1.99,3.24,4.25,5.05,4.24l10.31-.02h0Z"/>
  <path d="M191.24,335.27l-19.48,3.07c-.4-.36-.21-3.19.63-3.26l17.04-1.37,1.8,1.56h.01Z"/>
  <path d="M183.34,362.68l-7.24-1.04c-.09-1.08.32-4.92.67-5.38l6.64,1.48c1.35.3,3.23.86,3.15,1.8-.12,1.44-2.03,3.3-3.22,3.13h0Z"/>
  <path d="M185.71,315.84l-10.69-1.41-2.49,3.4-1.83-5.54,5.43.16c3.02.09,7.09-3.34,9.59,3.4h-.01Z"/>
  <path d="M338.99,275.95c-5.91,4.07-12.29,6.04-19.16,5.74l19.16-5.74Z"/>
  <path d="M282.97,156.36c-7.59,1.12-14.86-6.51-16.79-13.49-3.36-12.17-1.02-25.64,7.25-35.57,3.24-3.89,12.23-7.28,16.86-5.65,13.63,4.81,17.27,19.61,13.76,32.25-2.88,10.35-8.84,20.65-21.08,22.46h0ZM281.05,144.91c-3.54-1.81-5.7-3.97-8.57-6.32-.06,2.19.59,7.1,2.38,8.51,4.13,3.27,11.16,2.95,15.27.02,8.55-6.08,12.11-17.15,10.11-27.05-1.07-5.27-3.67-9.9-9.59-10.56-2.07-.23-4.1,4.2-3.87,6.24l.77,7c-3.39,1.19-6.17,2.6-6.8,4.68-.68,2.28-.38,6.33.76,7.95l7.38-1.21c.59,1.3-.08,5.77-1.17,7.72-.88,1.58-4.91,3.91-6.65,3.02h-.02ZM278.9,118.83c2.77-2.14,5.79-5.55,3.18-9.62-3.83,4.07-5.8,8.17-6.66,13.28l3.48-3.65h0Z"/>
  <path d="M345.14,146.8c-1.36,7.1-3.52,12.53-6.6,19.19l-5.41-1.69c-.61-.19-.17-3.56.44-3.36s1.86.65,2.42.98l1.67,1c.34.2,1.85-.12,1.63-.45-2.2-3.32-6.76-2.67-8.58-8.72-.91-3.03.53-6.36,3.91-9.08,2.28.95,4.69,2.87,7.2,5.21l-8.01,6.88,5.24.57,6.1-10.54h0Z"/>
  <path d="M322.92,202.55l3.76-15.6,3.85-15.97,3.03,2.41c.79.63-.63,3.09-1,4.15l-8.72,25.05-.92-.04h0Z"/>
  <path d="M232.49,98.85l.67,2.6c.1.41,1.3,1.11,1.39.7l.43-2.1c.79-3.89,0-6.94-4.18-8.01l-.2-10.24c4.18,2.14,1.28,6.7,6,12.76,1.11,1.43,2.07,4.1,2.02,5.58-.06,1.87-2.4,5.28-4.64,4.9-2.05-.35-2.47-5.05-1.49-6.17v-.02Z"/>
  <path d="M261.7,154.7c-2.67-3.99-5.63-8.89-5.64-13.5l-.03-25.35c0-2.1,1.12-6.05,1.77-8-.9,13.88-1.86,33.56,3.46,43.37.41.76.55,3.07.44,3.49h0Z"/>
  <path d="M331.86,135.36c-1.06,1.16-1.97,2-2.68,2.3s-2.37-.61-2.57-1.36c-1.4-5.37,9.94-4.75,17.23-13.42,1.83-2.18.48-6.94-.92-8.43l-1.95.22c-.36.04-1.29.03-1.15-.3l1.07-2.64c.46-1.15,5.01-1.88,5.04-.52l.44,18.18-7.9-1.26-6.6,7.23h0Z"/>
  <path d="M292.06,31.68l-1.49-9.29c3.41,4.39,3,9.15,1.6,13.86l-8.96.15-1.93-14.39c4.02-.02,5.41-.1,8.65,1.15h-6.64c.31,7.12,1.41,13.02,6.23,12.36,1.06-.15,2.54-2.71,2.55-3.84h0Z"/>
  <path d="M290.09,94.65c-.61,3.05-8.8-.93-16.2,4.02,1.14-2.54,3.89-4.35,7.09-4.74l3.09-3.54,6.84.2-.82,4.05h0Z"/>
  <path d="M273.14,236.96l18.24-6.6c4.02-1.45,8.8-4.59,11.6-6.92l-3.75-11.98c-.82-2.62-2.31-5.32-1.55-8.12l6.61,11.97-.5,7.9c-.31,4.85-20.48,13.76-30.65,13.76h0Z"/>
  <path d="M245.78,196.55c-15.48-2.42-15.2-11.81-12.31-10.01l2.53,1.57c3.51,2.17,6.81,4.39,9.78,8.45h0Z"/>
  <path d="M272.61,229.53c-1.13-.83-3.2-2.05-4.12-1.58-1.26.65-1.68,2.97-1.05,5.78-1.98-.26-4.75-1.54-6.48-3.01,5.39-4.19,10.3-5.64,16.85-5.38l-5.2,4.19Z"/>
  <path d="M237.21,208.7l4.08-.61c3.32-1.03,4.67-6.35,5.33-10.3.87,3.03,1.38,7.75.59,11.19-2.66,1.83-7.38,2.34-10-.28h0Z"/>
  <path d="M282.86,175.38c-1.3-1.45-1.04-6.82.25-7.95,2.76-.99,5.06,1.45,4.86,3.99-.15,1.88-3.24,5.56-5.11,3.97h0Z"/>
  <path d="M223.96,135.22c.8,1.4-1.89,4.95-3.43,4.99-1.67.05-4.17-2.17-4.66-4.74.52-2.27,6.54-2.99,8.09-.26h0Z"/>
  <path d="M320.57,166.67c-1.38.76-3.9-2.45-3.84-4.12.07-2.03,1.98-5.46,3.93-5.35,2.08,1.98,2.31,7-.09,9.47h0Z"/>
  <path d="M228.09,163.68c.96.73.66,3.96-.07,4.94s-3.86,1.92-5.05,1.37c-1.06-.49-.7-3.7-.29-4.8.49-1.32,3.68-2.83,5.41-1.51Z"/>
  <path d="M330.6,43.75c1.32,2.13-1.27,5.34-2.95,5.38-1.52.04-4.68-2.3-4.35-4.05.36-1.89,6.28-2.97,7.3-1.33Z"/>
  <path d="M266.06,177.32l2.08-12.26c3.94,3.31,3.86,9.57-2.08,12.26Z"/>
  <path d="M316.27,178.16c.96-.29,2.27,4.47.63,7.77-3.89-.07-5.13-6.4-4.11-6.71l3.47-1.06h.01Z"/>
  <path d="M338.3,59.83c1.26,1.52-.46,4.36-2.2,4.97s-4.39-1.39-4.1-4.08c.18-1.67,5.01-2.44,6.29-.89h.01Z"/>
  <path d="M220.58,123.98c-3.52-.21-3.61-7.06-.46-7.65,1.12-.13,2.89,2.11,2.92,3.24s-1.35,4.48-2.46,4.41h0Z"/>
  <path d="M255.05,64.89l-5.6-9.13c-1-.79-2.34-2.25-2.68-3.18-.41-1.12,2.76-2.99,3.26-1.94l5.02,14.25h0Z"/>
  <path d="M327.67,95.96l-2.33-13.79c3.23,2.82,6.87,9.03,2.33,13.79Z"/>
  <path d="M314.34,91.27c.18,3.11-.86,2.94-1.91,1.18l-2.44,2.37c-.62.6-2.69-.7-3.35-1.28-.79-.69-.35-4.14.62-4.12l7.07,1.85h0Z"/>
  <path d="M280.88,218.2c-1.64.09-5.04-3.3-5-5.26,0-1.36,4.21-1.45,5.25-.56,1.16.99,1.6,3.82-.25,5.82h0Z"/>
  <path d="M17.12,202.29c.62,1.07,3.89.74,4.65.26,1.73,1.9-1.71,7.35-4.2,5.85-6.92-4.15-1.46-17.93,1.35-19.76,1.45-.95,4.36-1.1,7.76-1.57.64,3.67-3.55,6.53-7.38,7.46-1.98.48-3.18,6.04-2.19,7.76h.01Z"/>
  <path d="M400.23,174.97l-22.96-10.28c-4.46-2-8.63-5.38-12.71-9.2l19.7,8.41c5.89,2.51,10.97,6.95,15.98,11.07h0Z"/>
  <path d="M74.71,244.11c-.65,1.75-5.24,2-7.06.04-1.36-1.46.26-6.69,2.27-7.01,2.8-.45,5.25,3.26,4.8,6.97h-.01Z"/>
  <path d="M414.09,189.82l-13.03-13.88c6.19,1.73,11.53,6.72,13.03,13.88Z"/>
  <path d="M170.01,60.41c-5.39,13.13-2.52,22.39-8.74,19.12,2.18-7.72,3.49-17.34,8.74-19.12Z"/>
  <path d="M148.58,87.11c-.63-3.29.6-5.86,1.55-8.93,2.14-6.88,3.55-13.47,8.12-19.25l-9.68,28.18h.01Z"/>
  <path d="M200.69,63.04c-.15,4.88-4.28,11.95-8.58,10.56l5.15-10.88c.34-.72,3.45-.42,3.43.31h0Z"/>
  <path d="M105.57,221.85c6.3,7.62,8.82,1.56,12.48,3.13-3.19,4.68-7.28,3.01-11.05,2.22-13.39-2.8-27.78-6.18-39.52-11.71,5.47-.35,9.24-.73,13.51-1.84l1.61,1c-.57-.36,10.34-7.46,18.68-10.55,1.81,3.64,1.81,6.99.49,10.23l-1.29-2.72c.35.75-6.53-2.03-9.43.71-1.42,1.34-2.68,4.96-1.1,6.54,3.21,3.21,8.74,3.65,12.44,2.92l4.62-6.07-1.44,6.14h0Z"/>
  <path d="M143.87,212.25l-4.44-4.73c-2.64-2.82-7.77-2.81-10.42.67s-5.21,8.41-7.6,12.33c-4.12,1.56-9.44-3.02-10.54-6.83-1.16-4,.42-9.68,5.59-11.29,3.92-1.22,7.6,8,8.16,7.72,4.12-2.11,3.17-6.04,9.24-6.36,5.75-.3,9.63,2.52,10.03,8.48h-.02ZM120.93,215.95c1.37-1.6,1.98-4.22,1.51-5.67-.39-1.21-3.06-3.56-4.25-3.11-2.24.85-4.24,4.38-4.33,6.89-.04,1.2,1.69,3.74,2.82,3.88s3.35-.93,4.25-1.98h0Z"/>
  <path d="M149.94,237.14l-13.96-2.05c-1.07-.16-2.95-1.58-2.84-2.5.43-3.63,5.43-1.54,11.94-5.12.09.32-.08,2.09-.65,2.37l-3.42,1.7c4.34,2.2,11.55-.16,11.76,2.04.1,1.08-1.6,3.73-2.81,3.55h-.02Z"/>
  <path d="M139.37,223.3l-9.08-1.98,4.35-9c5.51,1.38,6.61,5.85,4.73,10.98h0Z"/>
  <path d="M130.25,232.5c-4.39,1.43-8.36.21-12.5-1.65l7.9-5.67,4.6,7.32h0Z"/>
  <path d="M49.82,93.7c-3.62-2.88-6.2-.37-10.62-3.58-.73-.53-3.19-1.74-3.64-1.05l-2.74,4.23c-.41-1.53-.08-5.27.77-7.7,5.45-.34,9.66.26,14.44,2.56,1.75.84,2.6,4.78,1.79,5.55h0Z"/>
  <path d="M59.74,98.9l-6.74-2.28c-1.32-.45-1.7-3.04-1.07-4.3l3.29-6.65c1.69,1.21,3.15,3.99,2.74,6.3l1.79,6.93h0Z"/>
  <path d="M345.15,223.84c.82,1.23,5.71-.02,5.49-1.36l-1.05-6.32,6.68,5.5-5.76,3.07c-2.43,1.3-5.09,2.38-8.02,3.24-5.2-7.17-3.39-13.61,1.67-19.82l2.63-3.23c.64-.79,3.44.54,4.33,1.2l9.56,7.07,8.72,6.36-4.94,1.66c-1.11.37-2.15-2.75-3.08-3.57-4.12-3.64-9.34-6.99-14.61-9.98-4.61,4.12-4.73,11.5-1.62,16.18h0Z"/>
  <path class="st8" d="M184.88,303.1l-11.02-.15,1.03-6.84,9.43.66c1.2.08,3.23,1.68,3.51,2.81s-1.71,3.53-2.94,3.51h-.01Z"/>
  <path class="st0" d="M281.05,144.91c1.74.89,5.77-1.44,6.65-3.02,1.09-1.94,1.76-6.41,1.17-7.72l-7.38,1.21c-1.14-1.61-1.44-5.66-.76-7.95.62-2.08,3.41-3.49,6.8-4.68l-.77-7c-.22-2.04,1.8-6.47,3.87-6.24,5.92.65,8.53,5.29,9.59,10.56,2,9.9-1.56,20.98-10.11,27.05-4.11,2.93-11.14,3.25-15.27-.02-1.79-1.42-2.44-6.32-2.38-8.51,2.87,2.35,5.03,4.51,8.57,6.32h.02Z"/>
  <path class="st0" d="M278.9,118.83l-3.48,3.65c.86-5.11,2.83-9.21,6.66-13.28,2.61,4.08-.41,7.48-3.18,9.62h0Z"/>
  <path class="st4" d="M120.93,215.95c-.9,1.05-3.12,2.11-4.25,1.98s-2.86-2.68-2.82-3.88c.09-2.51,2.09-6.04,4.33-6.89,1.19-.45,3.86,1.89,4.25,3.11.47,1.46-.14,4.07-1.51,5.67h0Z"/>
</svg>