<?xml version="1.0" encoding="UTF-8"?>
<svg id="icons_xA0_Image" xmlns="http://www.w3.org/2000/svg" version="1.1" viewBox="0 0 426.17 413.69">
  <!-- Generator: Adobe Illustrator 30.5.1, SVG Export Plug-In . SVG Version: 2.1.4 Build 3)  -->
  <defs>
    <style>
      .st0 {
        fill: #dcbe86;
      }

      .st1, .st2 {
        fill: #42412c;
      }

      .st2 {
        font-family: Calibre2-Bold, 'Calibre 2';
        font-size: 35.79px;
        font-weight: 700;
        letter-spacing: .2em;
      }
    </style>
  </defs>
  <path d="M158.48,314.1c-5.14-5.05-8.69-12.87-9.56-19.53-.68-5.21-1.61-8.49-7.35-10.11l1.48-10.12-12.15-15.98c-3.72-4.89-7.57-9.28-10.01-15-2.14-5.01-5.8-8.64-9.92-12.07-3.61-3-6.89-4.43-11.65-2.3-4.7,2.1-11.04,3.61-15.88.79-7.96-4.64-8.12-19.34-13.31-18.5s-9.06,2.78-13.8,5.03l-9.75-2.06c-4.16,3.72-8.94,7.55-14.77,8.11-4.43.43-8.59-2.31-10.46-5.09-6.88-10.18,1.08-20.55,8.2-32.29.14-8.83-7.38-14.82-2.3-26.12-6.83-4.54-5.21-13.85-9.19-23.72l3.35-7.85c-.05-4.45.95-10.16.43-13.78-.78-5.5-2.49-8.48.42-13.8,2.6-4.76-.4-11.71-4.8-14.99l-10.07-.83c-6.92-3.94-8.52-12.07-6.67-19.55,2.19-8.86,10.84-14.42,20.27-12.79,5.97,1.03,4.6-7.23,13.27-10.01,6.12-1.96-4.96-12.37,5.35-20.53,5.35-4.23,14.1-9.09,16.3-7.53,1.1.78,2.47,2.3,4.14,4.02,4.22-2.31,9.5-5.29,14.73-3.95,5.57,1.44,9.17,10.11,14.47,7.64,9.87-4.6,14.71,5.42,19.24,15.7,11.19,5.5,22.93,7.21,32.73,15.24,7.9-.49,15.1.21,22.61,3.22l10.96,14.19,13.54-12.86c5.95-1.22,12.14,4.76,18.14,2.24,4.33-1.81,4.7-11,11.31-14.75,2.66-1.51,9.47-2.56,12.19-1.01,4.57,2.6,8.02,5.88,12.29,9.29,1.58-.7,4.26-2.69,5.36-4.12,3.76-4.92,8.32-7.12,13.54-9.79,13.29-6.82,13.93,6.66,20.9.61l10.24-.23,9.43-8.48,12.7-2.35c4.46-2.04,7.99-5.17,7.33-10.7,10.03-11.32,24.53-23.55,36.21-13.91,4.86,4.01,10.79-5.15,19.8,7s2.09,14.98,2.99,18.95,4.53,8.99,6.06,12.66l3.96,9.47c1.37,3.28,3.24,5.25,6.66,8.36l-4.67,1.98c1.77,3.9,4.26,7.68,5.65,11.98,1.84,5.69-.94,17.5-8.5,19.53-5.59,1.5-14.1-8.52-19.03-4.18l-15.08,13.3c-2.65,10.41-3.78,15.82-15.34,16.76-4.6,9.71-9.01,18.93-3.38,26.88,2.09,2.95,1.82,5.88,1.25,9.6-.53,3.48,3.8,6.88,5.24,9.9l11.57,24.27c12.51,3.4,19.37,14.98,16.43,27.22,4.72,6.93,10.04,12.22,16.55,17.26l4.37-3.34,8.96,6.65c6.21,4.61,11.81,8.42,16.33,14.91,1.57,2.26,3.25,6.85,1.94,9.24l-6.36,11.69,10.97,18.42c3.79,6.36,1.36,16.85-3.5,22.44-3.09,3.55-8.77,5.31-13,6.92l-16.31,6.2c-4.83-4.17-10.47-3.4-14.93.71-3.07,2.83-6.66,3.5-10.91,2.57-3.8-.82-8.98.06-10.81,3.61l-6.78,13.15c1.86,7.1,9.66,10.02,6,17.33s9.89,11.44,6.39,25.3c-1.31,5.19-4.21,11.44-11.25,12.85-2.23.45-6.02-2.63-8.45-4.31-3.08,6.14-6.97,13.48-14.04,14.72-8.96,1.58-16.21-7.46-15.81-16.04.42-8.97-10.85-4.81-15.06-18.38-1.44-1.99-5.82-4.03-8.27-5.42-5.37-3.05-10.3-6.72-15.93-8.83l-16.75-6.29-12.41,4.71c-2.22.84-7.03-2-9.3-3.07l-21.26-10.08c-3.18,2.74-7.37,6.46-10.74,6.31-11.36-.51-17.66-9.62-16.39-20.02.39-3.2-1.67-5.31-3.92-6.92l-15.26-10.97c-1.62-1.16-5.44-2.73-7.15-4.4ZM127.32,243.34l16.92,22.71c1.17.68,3.04,1.38,3.37,2.31,1.44,4.1-4.12,7.19,2.47,14.04,4.64,4.82,2.71,19.7,11.51,26.11l10.53,7.68,16.23,11.69c.44,5.28.69,12.91,3.47,17.75,3.25-.12,6.45.61,9.29,2.63,1.38.6,4.35-1.68,5.44-3.25,10.56-.05,20.74,4.38,29.82,9.88,4.31,2.61,8.13,3.69,12.39.36,3.34-2.6,7.65-1.64,11.46-.35,10.36,3.54,19.6,7.38,28.7,13.4,3.74,2.47,8.96,4.73,11.24,8.54,6.95,11.62,16.79,9.85,16.42,21.61-.14,4.63,3.3,9.92,8.38,9.45,6.4-.59,9.11-13.54,13.77-13.27l12.95.75c2.52-3.13,6.06-9.53,3.57-13.37l-6.77-10.43c-1.18-1.81-1.56-6.01-.38-7.46,5.34-6.52-4.07-9.42-4.68-14.98-1.53-13.98,9.75-24.76,23.45-23.58,7.91.68,8.83-8.17,15.09-6.31,3.74,1.11,9.14,2.49,12.46,1.23l14.86-5.63c5.22-1.98,9.68-7.21,10.84-11.68,1.71-6.58-.62-11.4-4.68-16.61-3.52-4.52-8.39-12.16-5.29-17.78l5.23-9.47c-9.59-19.37-25.66-20.19-35.23-26.33-5.77-3.71-10.44-10.09-13.77-15.8,1.29-10.31.3-17-9.07-21.11-7.52-3.3-11.91-8.62-13.64-16.55-2.88-13.17-12.32-16.9-10.78-29.17l-3.6-5.64c-.56-9,1.28-18.39,5.28-26.43,2.1-4.22,5.05-6.17,10.37-4.69,2.8-4.24,4.49-8.19,6.1-13.35.66-2.11,4.16-3.99,5.91-5.67l11.15-10.73c7.52-1.85,14.43.96,21.01,5.12,4.57-4.33,4.77-10.91,2.88-16.71l-3.13-9.61c-1.97-6.05-3.52-11.84-8.1-16.18l1.67-3.34c.93-1.87-8.75-6.6-6.25-15.45s-1.85-17.82-10.56-20.12c-4.35,2.53-9.32,2.96-13.1-.99-2.4-1.55-5.37-1.78-7.9-.48-8.62,4.4-14.56,10.73-18.82,19.34-5.66,11.46-17.48,4.54-26.53,16.87l-16.35,2.3-4.86,1.54-10.99-4.69-3.51,4.54-9.25,2.12c-2.31,3.54-7.25,8.98-12.31,7.61-8.35-2.26-19.45-13.05-22.54-5.79l-6.41,15.03-17.51-.21c-1.66-.02-3.79-4.16-4.2-5.37l-14.77,13.85c-1.04.98-3.08,2.53-4.23,2.77-2.82.58-6.3-12.7-12.09-17.75-6.34-3.59-14.99.43-21.05-2.33-7.62-3.46-13.97-7.28-22.14-10.06-3.38-1.15-10.77-2.76-12.38-5.76l-6.6-12.25c-.81-1.49-4.77-2.63-6.49-2.15-13.89,3.92-17.68-9.56-22.23-6.99l-8.14,4.6-7.58-4.69c-4.33,1.86-8.5,4.49-11.49,8.02-5.45,6.44,3.73,10.94.42,14.3-4.26,4.31-7.7,8.16-11.68,12.72-5.33,6.11-17.51.51-21.76,5.93-3.98,5.06-4.41,13.18-.74,18.28,7.09,4.17,12.98-2.51,17.69,7.41,2.3,4.85,4.72,10.81,2.74,15.81-1,.68-3.58,2-3.27,2.95l1.36,4.24c2.52,7.84.71,15.51-.56,23.43,1.29,3.99,2.81,8.83,2.06,13.02l-2.75-11.68c-1.76,1.42-1.8,3.18-1.11,5.19l3.17,9.19c.53,1.53,1.02,5.01,1.71,6.33l4.66,8.89-3.19,2.28c-1.03.74,7.24,14.1,2.04,26.74-3.13,7.6-13.3,16.62-3.76,24.03,3.18.36,8.4-2.55,11.28-4.45,7.77-5.11,11.72.78,19.27-2.9,4.61-2.25,10.36-3.85,14.95-.62,6.9,4.87,6.88,16.75,12.41,18.27s15.06-5.03,20.73-2.56c16.09,7.01,16.62,15.98,19.52,19.86Z"/>
  <path class="st0" d="M127.32,243.34c-2.9-3.89-3.43-12.86-19.52-19.86-5.67-2.47-15.39,4.03-20.73,2.56s-5.51-13.4-12.41-18.27c-4.58-3.23-10.34-1.64-14.95.62-7.55,3.69-11.5-2.2-19.27,2.9-2.89,1.9-8.11,4.81-11.28,4.45-9.54-7.41.64-16.42,3.76-24.03,5.2-12.64-3.07-26.01-2.04-26.74l3.19-2.28-4.66-8.89c-.69-1.32-1.18-4.79-1.71-6.33l-3.17-9.19c-.69-2-.65-3.77,1.11-5.19l2.75,11.68c.75-4.19-.77-9.04-2.06-13.02,1.28-7.92,3.08-15.59.56-23.43l-1.36-4.24c-.31-.95,2.27-2.27,3.27-2.95,1.98-5-.44-10.96-2.74-15.81-4.71-9.92-10.6-3.24-17.69-7.41-3.67-5.1-3.23-13.22.74-18.28,4.26-5.42,16.44.19,21.76-5.93,3.98-4.57,7.43-8.41,11.68-12.72,3.31-3.36-5.87-7.86-.42-14.3,2.99-3.53,7.16-6.16,11.49-8.02l7.58,4.69,8.14-4.6c4.55-2.57,8.33,10.91,22.23,6.99,1.72-.48,5.68.65,6.49,2.15l6.6,12.25c1.62,3,9.01,4.61,12.38,5.76,8.17,2.78,14.52,6.6,22.14,10.06,6.06,2.76,14.71-1.26,21.05,2.33,5.79,5.05,9.27,18.33,12.09,17.75,1.15-.24,3.19-1.79,4.23-2.77l14.77-13.85c.41,1.22,2.54,5.35,4.2,5.37l17.51.21,6.41-15.03c3.1-7.26,14.19,3.52,22.54,5.79,5.05,1.37,10-4.07,12.31-7.61l9.25-2.12,3.51-4.54,10.99,4.69,4.86-1.54,16.35-2.3c9.05-12.33,20.87-5.41,26.53-16.87,4.25-8.61,10.2-14.94,18.82-19.34,2.53-1.29,5.5-1.07,7.9.48,3.78,3.95,8.75,3.52,13.1.99,8.71,2.3,12.98,11.55,10.56,20.12s7.18,13.57,6.25,15.45l-1.67,3.34c4.58,4.34,6.13,10.13,8.1,16.18l3.13,9.61c1.89,5.8,1.69,12.38-2.88,16.71-6.58-4.15-13.49-6.96-21.01-5.12l-11.15,10.73c-1.75,1.68-5.25,3.56-5.91,5.67-1.61,5.17-3.3,9.12-6.1,13.35-5.32-1.48-8.27.47-10.37,4.69-4.01,8.04-5.84,17.43-5.28,26.43l3.6,5.64c-1.53,12.28,7.9,16.01,10.78,29.17,1.73,7.93,6.12,13.25,13.64,16.55,9.38,4.11,10.37,10.8,9.07,21.11,3.33,5.71,8,12.09,13.77,15.8,9.57,6.14,25.64,6.96,35.23,26.33l-5.23,9.47c-3.1,5.62,1.77,13.26,5.29,17.78,4.06,5.22,6.39,10.03,4.68,16.61-1.16,4.47-5.63,9.71-10.84,11.68l-14.86,5.63c-3.32,1.26-8.72-.12-12.46-1.23-6.26-1.86-7.18,6.99-15.09,6.31-13.7-1.18-24.98,9.6-23.45,23.58.61,5.56,10.02,8.46,4.68,14.98-1.19,1.45-.8,5.65.38,7.46l6.77,10.43c2.49,3.84-1.05,10.24-3.57,13.37l-12.95-.75c-4.67-.27-7.38,12.68-13.77,13.27-5.08.47-8.52-4.82-8.38-9.45.37-11.76-9.48-9.99-16.42-21.61-2.28-3.81-7.5-6.07-11.24-8.54-9.1-6.03-18.34-9.87-28.7-13.4-3.81-1.3-8.12-2.26-11.46.35-4.27,3.33-8.08,2.25-12.39-.36-9.09-5.5-19.26-9.93-29.82-9.88-1.09,1.56-4.07,3.85-5.44,3.25-2.84-2.02-6.04-2.75-9.29-2.63-2.77-4.84-3.03-12.47-3.47-17.75l-16.23-11.69-10.53-7.68c-8.8-6.41-6.87-21.29-11.51-26.11-6.59-6.85-1.03-9.94-2.47-14.04-.33-.93-2.19-1.63-3.37-2.31l-16.92-22.71Z"/>
  <circle class="st0" cx="203.53" cy="207.16" r="29.82"/>
  <circle class="st1" cx="203.53" cy="207.16" r="29.82"/>
  <text class="st2" transform="translate(80.05 145.3)"><tspan x="0" y="0">PELİTKÖY</tspan></text>
</svg>