<?xml version="1.0" encoding="UTF-8"?>
<svg id="Layer_1" xmlns="http://www.w3.org/2000/svg" version="1.1" viewBox="0 0 498.78 512">
  <!-- Generator: Adobe Illustrator 30.5.1, SVG Export Plug-In . SVG Version: 2.1.4 Build 3)  -->
  <defs>
    <style>
      .st0 {
        fill: #333114;
      }
    </style>
  </defs>
  <path class="st0" d="M264.6,183.43c-10.06-.34-36.4,17.77-26.61,34.82,11.09-4.89,22.34-3.28,32.38,2.69,20.27,12.05,31.78,35.44,28.66,59.01-1.54,11.65-8.53,22.71-19.68,27.08-9.4,3.67-20.42,2.11-29.13-2.71-21.13-11.67-32.81-35.42-30.43-59,1.12-11.16,6.09-19.76,15.36-25.87-3.07-8.26-2.11-17.61,3.34-24.38l17.62-21.89c7.14-8.86,10.87-20.45,12.9-32.02,7.23-41.46,10.85-82.2,11.15-125.61,24.21,31.46,27.53,73.18,10.29,108.44l-22.12,36.61,13.75-10.99c11.73-9.37,21.2-19.88,35.12-26.38,16.84-7.85,34.98-11.54,53.03-7.36l-22.01,13.15c-49.56,29.6-65.58,11.39-97.4,56.12l31.76-13.49c20.35-6.63,42.96-4.17,60.77,9.41-27.42,3.81-52.46,3.25-78.7,2.37h-.02s-.01,0-.01,0ZM233.2,239.7c-6.24,2.65-7.32,17.83-.08,25.88,1.15,1.27,5.01,2.39,6.49,1.67,7.98-3.89.09-30.3-6.41-27.55h0Z"/>
  <path class="st0" d="M413.16,0l85.61.55c-19.63,8.54-35.54,14.81-43.51,34.24l-128.6,314.24-65.08,161.74c-6.42,1.72-14.91,1.7-21.43-.57L43.78,37.66C34.89,16.23,20.72,8.36,0,.23h131.27c-10.04,4.97-20.28,7.7-25.6,11.84s-6.34,19.98-3.35,27.2l169.26,408.62L428.87,62.75l9.74-34.22c-.8-17.04-8.24-21.03-25.48-28.52h.03Z"/>
</svg>